<mxfile host="app.diagrams.net" modified="2023-10-30T12:15:04.806Z" agent="Mozilla/5.0 (Macintosh; Intel Mac OS X 10_15_7) AppleWebKit/537.36 (KHTML, like Gecko) Chrome/118.0.0.0 Safari/537.36" etag="GovobwJhJNPouRTzXsiW" version="22.0.8" type="google">
  <diagram name="Page-1" id="20H9HnjSOWFWPSa3YD2d">
    <mxGraphModel grid="1" page="1" gridSize="10" guides="1" tooltips="1" connect="1" arrows="1" fold="1" pageScale="1" pageWidth="850" pageHeight="1100" math="0" shadow="0">
      <root>
        <mxCell id="0" />
        <mxCell id="1" parent="0" />
        <mxCell id="7oaHXAqahwuG4YpRLBfn-93" value="" style="rounded=0;whiteSpace=wrap;html=1;shadow=0;glass=0;labelBorderColor=none;labelBackgroundColor=none;fillColor=#bac8d3;strokeColor=#23445d;" vertex="1" parent="1">
          <mxGeometry x="20" y="-620" width="1530" height="710" as="geometry" />
        </mxCell>
        <mxCell id="7oaHXAqahwuG4YpRLBfn-86" style="edgeStyle=orthogonalEdgeStyle;rounded=1;orthogonalLoop=1;jettySize=auto;html=1;entryX=0.28;entryY=0.99;entryDx=0;entryDy=0;entryPerimeter=0;strokeColor=default;shadow=1;" edge="1" parent="1" source="7oaHXAqahwuG4YpRLBfn-35" target="7oaHXAqahwuG4YpRLBfn-47">
          <mxGeometry relative="1" as="geometry">
            <Array as="points">
              <mxPoint x="764" y="-32" />
            </Array>
          </mxGeometry>
        </mxCell>
        <mxCell id="7oaHXAqahwuG4YpRLBfn-88" value="Data Sending Remote Write" style="edgeLabel;html=1;align=right;verticalAlign=middle;resizable=0;points=[];labelPosition=left;verticalLabelPosition=middle;labelBackgroundColor=none;" connectable="0" vertex="1" parent="7oaHXAqahwuG4YpRLBfn-86">
          <mxGeometry x="0.3024" y="-3" relative="1" as="geometry">
            <mxPoint y="5" as="offset" />
          </mxGeometry>
        </mxCell>
        <mxCell id="7oaHXAqahwuG4YpRLBfn-68" value="" style="group" connectable="0" vertex="1" parent="1">
          <mxGeometry x="50" y="-200" width="430" height="270" as="geometry" />
        </mxCell>
        <mxCell id="7oaHXAqahwuG4YpRLBfn-28" value="" style="rounded=1;whiteSpace=wrap;html=1;fillColor=#dae8fc;strokeColor=#6c8ebf;gradientColor=#7ea6e0;movable=1;resizable=1;rotatable=1;deletable=1;editable=1;locked=0;connectable=1;" vertex="1" parent="7oaHXAqahwuG4YpRLBfn-68">
          <mxGeometry y="67.5" width="430" height="200" as="geometry" />
        </mxCell>
        <mxCell id="7oaHXAqahwuG4YpRLBfn-37" value="" style="rounded=1;whiteSpace=wrap;html=1;fillColor=none;dashed=1;" vertex="1" parent="7oaHXAqahwuG4YpRLBfn-68">
          <mxGeometry x="20" y="120" width="380" height="110" as="geometry" />
        </mxCell>
        <mxCell id="7oaHXAqahwuG4YpRLBfn-30" value="ECS Advanced Account" style="outlineConnect=0;dashed=0;verticalLabelPosition=bottom;verticalAlign=top;align=center;html=1;shape=mxgraph.aws3.ecs;fillColor=#F58534;gradientColor=none;" vertex="1" parent="7oaHXAqahwuG4YpRLBfn-68">
          <mxGeometry x="110" width="60" height="70" as="geometry" />
        </mxCell>
        <mxCell id="7oaHXAqahwuG4YpRLBfn-35" value="Prometheus&#xa;" style="shape=image;verticalLabelPosition=bottom;labelBackgroundColor=none;verticalAlign=top;aspect=fixed;imageAspect=0;image=https://upload.wikimedia.org/wikipedia/commons/thumb/3/38/Prometheus_software_logo.svg/2066px-Prometheus_software_logo.svg.png;" vertex="1" parent="7oaHXAqahwuG4YpRLBfn-68">
          <mxGeometry x="80" y="140" width="55.46" height="55" as="geometry" />
        </mxCell>
        <mxCell id="7oaHXAqahwuG4YpRLBfn-36" value="Blackbox" style="shape=image;verticalLabelPosition=bottom;labelBackgroundColor=none;verticalAlign=top;aspect=fixed;imageAspect=0;image=https://user-images.githubusercontent.com/29163931/194315100-77d20fa9-3d5d-4f06-a7b2-5e52a7bc5c72.png;" vertex="1" parent="7oaHXAqahwuG4YpRLBfn-68">
          <mxGeometry x="240" y="140" width="110" height="62.37" as="geometry" />
        </mxCell>
        <mxCell id="7oaHXAqahwuG4YpRLBfn-55" value="" style="endArrow=classic;html=1;rounded=0;" edge="1" parent="1">
          <mxGeometry relative="1" as="geometry">
            <mxPoint x="190" y="-30" as="sourcePoint" />
            <mxPoint x="280" y="-29.319999999999993" as="targetPoint" />
          </mxGeometry>
        </mxCell>
        <mxCell id="7oaHXAqahwuG4YpRLBfn-56" value="Scrape Metrics" style="edgeLabel;resizable=0;html=1;align=center;verticalAlign=middle;labelBackgroundColor=none;" connectable="0" vertex="1" parent="7oaHXAqahwuG4YpRLBfn-55">
          <mxGeometry relative="1" as="geometry">
            <mxPoint y="10" as="offset" />
          </mxGeometry>
        </mxCell>
        <mxCell id="7oaHXAqahwuG4YpRLBfn-57" value="Pull" style="edgeLabel;resizable=0;html=1;align=left;verticalAlign=bottom;labelBackgroundColor=none;" connectable="0" vertex="1" parent="7oaHXAqahwuG4YpRLBfn-55">
          <mxGeometry x="-1" relative="1" as="geometry" />
        </mxCell>
        <mxCell id="7oaHXAqahwuG4YpRLBfn-5" value="" style="rounded=1;whiteSpace=wrap;html=1;fillColor=#dae8fc;strokeColor=#6c8ebf;gradientColor=#7ea6e0;movable=0;resizable=0;rotatable=0;deletable=0;editable=0;locked=1;connectable=0;" vertex="1" parent="1">
          <mxGeometry x="460" y="-520" width="620" height="190" as="geometry" />
        </mxCell>
        <mxCell id="7oaHXAqahwuG4YpRLBfn-7" value="Kubernetes Cluster (EKS)" style="sketch=0;points=[[0,0,0],[0.25,0,0],[0.5,0,0],[0.75,0,0],[1,0,0],[0,1,0],[0.25,1,0],[0.5,1,0],[0.75,1,0],[1,1,0],[0,0.25,0],[0,0.5,0],[0,0.75,0],[1,0.25,0],[1,0.5,0],[1,0.75,0]];outlineConnect=0;fontColor=#232F3E;fillColor=#ED7100;strokeColor=#ffffff;dashed=0;verticalLabelPosition=top;verticalAlign=bottom;align=center;html=1;fontSize=12;fontStyle=0;aspect=fixed;shape=mxgraph.aws4.resourceIcon;resIcon=mxgraph.aws4.eks;labelPosition=center;" vertex="1" parent="1">
          <mxGeometry x="750" y="-564.82" width="44.824561403508774" height="44.824561403508774" as="geometry" />
        </mxCell>
        <mxCell id="7oaHXAqahwuG4YpRLBfn-20" value="Grafana" style="shape=image;verticalLabelPosition=bottom;labelBackgroundColor=none;verticalAlign=top;aspect=fixed;imageAspect=0;image=https://static-00.iconduck.com/assets.00/grafana-icon-2048x2048-wqsyt9bl.png;fontColor=default;" vertex="1" parent="1">
          <mxGeometry x="980" y="-486.32" width="58.74" height="59.99" as="geometry" />
        </mxCell>
        <mxCell id="7oaHXAqahwuG4YpRLBfn-23" value="Blackbox" style="shape=image;verticalLabelPosition=bottom;labelBackgroundColor=none;verticalAlign=top;aspect=fixed;imageAspect=0;image=https://user-images.githubusercontent.com/29163931/193820367-521b8377-590d-47d5-828f-69f51d5174b0.png;imageBorder=none;expand=0;" vertex="1" parent="1">
          <mxGeometry x="520" y="-481.0057894736842" width="92.5178947368421" height="53.02745614035088" as="geometry" />
        </mxCell>
        <mxCell id="7oaHXAqahwuG4YpRLBfn-46" value="Alertmanager" style="shape=image;verticalLabelPosition=bottom;labelBackgroundColor=none;verticalAlign=top;aspect=fixed;imageAspect=0;image=https://upload.wikimedia.org/wikipedia/commons/thumb/3/38/Prometheus_software_logo.svg/775px-Prometheus_software_logo.svg.png;" vertex="1" parent="1">
          <mxGeometry x="860" y="-483.55" width="54.94" height="54.44" as="geometry" />
        </mxCell>
        <mxCell id="7oaHXAqahwuG4YpRLBfn-27" value="Namespace" style="rounded=1;whiteSpace=wrap;html=1;fillColor=none;dashed=1;labelPosition=center;verticalLabelPosition=bottom;align=center;verticalAlign=top;" vertex="1" parent="1">
          <mxGeometry x="483.7" y="-510" width="582.59" height="130" as="geometry" />
        </mxCell>
        <mxCell id="7oaHXAqahwuG4YpRLBfn-50" style="edgeStyle=orthogonalEdgeStyle;orthogonalLoop=1;jettySize=auto;html=1;curved=1;endArrow=async;endFill=1;exitX=0.698;exitY=0.505;exitDx=0;exitDy=0;exitPerimeter=0;" edge="1" parent="1" source="7oaHXAqahwuG4YpRLBfn-47" target="7oaHXAqahwuG4YpRLBfn-105">
          <mxGeometry relative="1" as="geometry">
            <mxPoint x="710" y="-256" as="sourcePoint" />
            <mxPoint x="675" y="-459.10087719298235" as="targetPoint" />
            <Array as="points">
              <mxPoint x="640" y="-256" />
              <mxPoint x="640" y="-459" />
            </Array>
          </mxGeometry>
        </mxCell>
        <mxCell id="7oaHXAqahwuG4YpRLBfn-80" value="" style="group" connectable="0" vertex="1" parent="1">
          <mxGeometry x="1060" y="-210" width="430" height="270" as="geometry" />
        </mxCell>
        <mxCell id="7oaHXAqahwuG4YpRLBfn-72" value="" style="rounded=1;whiteSpace=wrap;html=1;fillColor=#dae8fc;strokeColor=#6c8ebf;gradientColor=#7ea6e0;movable=1;resizable=1;rotatable=1;deletable=1;editable=1;locked=0;connectable=1;" vertex="1" parent="7oaHXAqahwuG4YpRLBfn-80">
          <mxGeometry y="70" width="430" height="200" as="geometry" />
        </mxCell>
        <mxCell id="7oaHXAqahwuG4YpRLBfn-73" value="" style="rounded=1;whiteSpace=wrap;html=1;fillColor=none;dashed=1;" vertex="1" parent="7oaHXAqahwuG4YpRLBfn-80">
          <mxGeometry x="20" y="120" width="380" height="110" as="geometry" />
        </mxCell>
        <mxCell id="7oaHXAqahwuG4YpRLBfn-76" value="Blackbox" style="shape=image;verticalLabelPosition=bottom;labelBackgroundColor=none;verticalAlign=top;aspect=fixed;imageAspect=0;image=https://user-images.githubusercontent.com/29163931/194315100-77d20fa9-3d5d-4f06-a7b2-5e52a7bc5c72.png;" vertex="1" parent="7oaHXAqahwuG4YpRLBfn-80">
          <mxGeometry x="240" y="140" width="110" height="62.37" as="geometry" />
        </mxCell>
        <mxCell id="7oaHXAqahwuG4YpRLBfn-75" value="Prometheus&#xa;" style="shape=image;verticalLabelPosition=bottom;labelBackgroundColor=none;verticalAlign=top;aspect=fixed;imageAspect=0;image=https://upload.wikimedia.org/wikipedia/commons/thumb/3/38/Prometheus_software_logo.svg/2066px-Prometheus_software_logo.svg.png;" vertex="1" parent="7oaHXAqahwuG4YpRLBfn-80">
          <mxGeometry x="80" y="140" width="55.46" height="55" as="geometry" />
        </mxCell>
        <mxCell id="7oaHXAqahwuG4YpRLBfn-77" value="" style="endArrow=classic;html=1;rounded=0;" edge="1" parent="7oaHXAqahwuG4YpRLBfn-80">
          <mxGeometry relative="1" as="geometry">
            <mxPoint x="140" y="167" as="sourcePoint" />
            <mxPoint x="230" y="167.68000000000006" as="targetPoint" />
          </mxGeometry>
        </mxCell>
        <mxCell id="7oaHXAqahwuG4YpRLBfn-78" value="Scrape Metrics" style="edgeLabel;resizable=0;html=1;align=center;verticalAlign=middle;labelBackgroundColor=none;" connectable="0" vertex="1" parent="7oaHXAqahwuG4YpRLBfn-77">
          <mxGeometry relative="1" as="geometry">
            <mxPoint y="10" as="offset" />
          </mxGeometry>
        </mxCell>
        <mxCell id="7oaHXAqahwuG4YpRLBfn-79" value="Pull" style="edgeLabel;resizable=0;html=1;align=left;verticalAlign=bottom;labelBackgroundColor=none;" connectable="0" vertex="1" parent="7oaHXAqahwuG4YpRLBfn-77">
          <mxGeometry x="-1" relative="1" as="geometry" />
        </mxCell>
        <mxCell id="7oaHXAqahwuG4YpRLBfn-74" value="ECS Transit&amp;nbsp;Account" style="outlineConnect=0;dashed=0;verticalLabelPosition=bottom;verticalAlign=top;align=center;html=1;shape=mxgraph.aws3.ecs;fillColor=#F58534;gradientColor=none;" vertex="1" parent="7oaHXAqahwuG4YpRLBfn-80">
          <mxGeometry x="110" width="60" height="70" as="geometry" />
        </mxCell>
        <mxCell id="7oaHXAqahwuG4YpRLBfn-47" value="Ingest Ingress Victoria Metrics" style="sketch=0;html=1;dashed=0;whitespace=wrap;fillColor=#2875E2;strokeColor=#ffffff;points=[[0.005,0.63,0],[0.1,0.2,0],[0.9,0.2,0],[0.5,0,0],[0.995,0.63,0],[0.72,0.99,0],[0.5,1,0],[0.28,0.99,0]];verticalLabelPosition=top;align=left;verticalAlign=bottom;shape=mxgraph.kubernetes.icon;prIcon=ing;labelPosition=right;" vertex="1" parent="1">
          <mxGeometry x="750" y="-280" width="50" height="48" as="geometry" />
        </mxCell>
        <mxCell id="7oaHXAqahwuG4YpRLBfn-96" style="edgeStyle=orthogonalEdgeStyle;rounded=1;orthogonalLoop=1;jettySize=auto;html=1;entryX=0.28;entryY=0.99;entryDx=0;entryDy=0;entryPerimeter=0;strokeColor=default;shadow=1;" edge="1" parent="1">
          <mxGeometry relative="1" as="geometry">
            <mxPoint x="1060" y="-32" as="sourcePoint" />
            <mxPoint x="789" y="-232" as="targetPoint" />
            <Array as="points">
              <mxPoint x="789" y="-32" />
            </Array>
          </mxGeometry>
        </mxCell>
        <mxCell id="7oaHXAqahwuG4YpRLBfn-97" value="Data Sending Remote Write" style="edgeLabel;html=1;align=right;verticalAlign=middle;resizable=0;points=[];labelPosition=left;verticalLabelPosition=middle;labelBackgroundColor=none;" connectable="0" vertex="1" parent="7oaHXAqahwuG4YpRLBfn-96">
          <mxGeometry x="0.3024" y="-3" relative="1" as="geometry">
            <mxPoint x="148" y="43" as="offset" />
          </mxGeometry>
        </mxCell>
        <mxCell id="7oaHXAqahwuG4YpRLBfn-105" value="Victoria Metrics" style="shape=image;verticalLabelPosition=bottom;labelBackgroundColor=none;verticalAlign=top;aspect=fixed;imageAspect=0;image=data:image/png,iVBORw0KGgoAAAANSUhEUgAAAdYAAAC6CAIAAACcOfuYAAAKrWlDQ1BJQ0MgUHJvZmlsZQAASImVlwdUU+kSgP970xstIRQpoTdBOgGkhB5A6dVGSAKEEmIgiIiiyOIKrCgiUlRWdBFEwQrIWhHFwiJYsLtBFhH1uViwofIucAi775333nlzztz5zmT+mfn/c/97JgBQVDkiUSqsAECaMFMc6uvBiI6JZeBGABGQAR2QAI3DzRCxgoMDASKz9u/yYQBAU/aW+VSuf//9v4oij5/BBQAKRjiel8FNQ/gEom+5InEmAKgGxK+3KlM0xT0I08RIgwhLpzhxht9Pcfw0o/HTMeGhnghrAIAnczjiRADIxoifkcVNRPKQ/RC2FPIEQoSzEXZNS0vnIdyOsDESI0J4Kj8z/i95Ev+WM16Wk8NJlPHMXqYF7yXIEKVyVv+fx/G/JS1VMlvDEFFyktgvFLHqyJndS0kPkLEwfnHQLAt40/HTnCTxi5hlboZn7CzzOF4BsrWpiwNnOUHgw5blyWSHzzI/wztslsXpobJaCWJP1ixzxHN1JSkRMn8Sny3Ln5MUHjXLWYLIxbOckRIWMBfjKfOLJaGy/vlCX4+5uj6yvadl/GW/ArZsbWZSuJ9s75y5/vlC1lzOjGhZbzy+l/dcTIQsXpTpIaslSg2WxfNTfWX+jKww2dpM5IWcWxssO8Nkjn/wLAM/EAwYIAJYAyZibUEA8vQDXgBZmcnPzpzakGe6aLVYkJiUyWAhN43PYAu5FvMZ1pbWNgBM3duZ1+Ldven7CNHxc77cXgAcjyLQNeeLrAKg7SEAanlzPr10AOSQWu0vuBJx1owPPfXAIF8EeUADakAL6AFjYI70aQ+cgTvwBv4gCISDGLAccEESSANisArkgg2gEBSDrWAHqAa1YB9oAIfBMdAGToML4DK4DvrAHfAQSMEweAnGwAcwAUEQDqJAVEgN0oYMIDPIGmJCrpA3FAiFQjFQHJQICSEJlAtthIqhMqga2gs1QkehU9AF6CrUD92HBqFR6C30BUbBZJgGa8KG8AKYCbPgADgcXgYnwivhHLgA3gJXwnXwIbgVvgBfh+/AUvglPI4CKBKKjtJBmaOYKE9UECoWlYASo9ahilAVqDpUM6oD1Y26hZKiXqE+o7FoKpqBNkc7o/3QEWgueiV6HboEXY1uQLeiu9C30IPoMfR3DAWjgTHDOGHYmGhMImYVphBTganHnMRcwtzBDGM+YLFYOtYI64D1w8Zgk7FrsCXY3dgW7HlsP3YIO47D4dRwZjgXXBCOg8vEFeKqcIdw53A3ccO4T3gSXhtvjffBx+KF+Hx8Bf4g/iz+Jn4EP0FQIBgQnAhBBB5hNaGUsJ/QQbhBGCZMEBWJRkQXYjgxmbiBWElsJl4iPiK+I5FIuiRHUghJQFpPqiQdIV0hDZI+k5XIpmRP8lKyhLyFfIB8nnyf/I5CoRhS3CmxlEzKFkoj5SLlCeWTHFXOQo4tx5PLk6uRa5W7KfdaniBvIM+SXy6fI18hf1z+hvwrBYKCoYKnAkdhnUKNwimFuwrjilRFK8UgxTTFEsWDilcVnyvhlAyVvJV4SgVK+5QuKg1RUVQ9qieVS91I3U+9RB2mYWlGNDYtmVZMO0zrpY0pKynbKkcqZyvXKJ9RltJRdEM6m55KL6Ufow/Qv6hoqrBU+CqbVZpVbqp8VJ2n6q7KVy1SbVG9o/pFjaHmrZaitk2tTe2xOlrdVD1EfZX6HvVL6q/m0eY5z+POK5p3bN4DDVjDVCNUY43GPo0ejXFNLU1fTZFmleZFzVdadC13rWStcq2zWqPaVG1XbYF2ufY57RcMZQaLkcqoZHQxxnQ0dPx0JDp7dXp1JnSNdCN083VbdB/rEfWYegl65XqdemP62vqL9HP1m/QfGBAMmAZJBjsNug0+GhoZRhluMmwzfG6kasQ2yjFqMnpkTDF2M15pXGd82wRrwjRJMdlt0mcKm9qZJpnWmN4wg83szQRmu83652PmO84Xzq+bf9ecbM4yzzJvMh+0oFsEWuRbtFm8XqC/IHbBtgXdC75b2lmmWu63fGilZOVvlW/VYfXW2tSaa11jfduGYuNjk2fTbvPG1syWb7vH9p4d1W6R3Sa7Trtv9g72Yvtm+1EHfYc4h10Od5k0ZjCzhHnFEePo4ZjneNrxs5O9U6bTMac/nc2dU5wPOj9faLSQv3D/wiEXXReOy14XqSvDNc71Z1epm44bx63O7am7njvPvd59hGXCSmYdYr32sPQQe5z0+Ojp5LnW87wXysvXq8ir11vJO8K72vuJj65Pok+Tz5ivne8a3/N+GL8Av21+d9mabC67kT3m7+C/1r8rgBwQFlAd8DTQNFAc2LEIXuS/aPuiR4sNFgsXtwWBIHbQ9qDHwUbBK4N/DcGGBIfUhDwLtQrNDe0Oo4atCDsY9iHcI7w0/GGEcYQkojNSPnJpZGPkxyivqLIoafSC6LXR12PUYwQx7bG42MjY+tjxJd5LdiwZXmq3tHDpwDKjZdnLri5XX566/MwK+RWcFcfjMHFRcQfjvnKCOHWc8Xh2/K74Ma4ndyf3Jc+dV84b5bvwy/gjCS4JZQnPE10StyeOJrklVSS9EngKqgVvkv2Sa5M/pgSlHEiZTI1KbUnDp8WlnRIqCVOEXela6dnp/SIzUaFIutJp5Y6VY+IAcX0GlLEsoz2ThgxIPRJjyQ+SwSzXrJqsT6siVx3PVswWZvesNl29efVIjk/OL2vQa7hrOnN1cjfkDq5lrd27DloXv64zTy+vIG94ve/6hg3EDSkbfsu3zC/Lf78xamNHgWbB+oKhH3x/aCqUKxQX3t3kvKn2R/SPgh97N9tsrtr8vYhXdK3Ysrii+GsJt+TaT1Y/Vf40uSVhS2+pfemerditwq0D29y2NZQpluWUDW1ftL21nFFeVP5+x4odVytsK2p3EndKdkorAyvbq/SrtlZ9rU6qvlPjUdOyS2PX5l0fd/N239zjvqe5VrO2uPbLz4Kf7+313dtaZ1hXsQ+7L2vfs/2R+7t/Yf7SWK9eX1z/7YDwgLQhtKGr0aGx8aDGwdImuEnSNHpo6aG+w16H25vNm/e20FuKj4AjkiMvjsYdHTgWcKzzOPN48wmDE7tOUk8WtUKtq1vH2pLapO0x7f2n/E91djh3nPzV4tcDp3VO15xRPlN6lni24OzkuZxz4+dF519dSLww1Lmi8+HF6Iu3u0K6ei8FXLpy2efyxW5W97krLldOX3W6euoa81rbdfvrrT12PSd/s/vtZK99b+sNhxvtfY59Hf0L+8/edLt54ZbXrcu32bev31l8p38gYuDe3aV3pfd4957fT73/5kHWg4mH6x9hHhU9Vnhc8UTjSd3vJr+3SO2lZwa9Bnuehj19OMQdevlHxh9fhwueUZ5VjGiPND63fn561Ge078WSF8MvRS8nXhX+Q/Efu14bvz7xp/ufPWPRY8NvxG8m35a8U3t34L3t+87x4PEnH9I+THws+qT2qeEz83P3l6gvIxOrvuK+Vn4z+dbxPeD7o8m0yUkRR8yZHgVQiMIJCQC8PQAAJQYAah8AxCUzc/W0QDP/BaYJ/Ceemb2nxR6Aw+sBCEbU+zwAte4AGCAsN+VDONwdwDY2Mp2dgafn9SnRlUNSDCCTAyStZM3OxTKZmeX/0ve/WiDL+jf7TwH0BxQ54TVaAAAAOGVYSWZNTQAqAAAACAABh2kABAAAAAEAAAAaAAAAAAACoAIABAAAAAEAAAHWoAMABAAAAAEAAAC6AAAAAIKmewoAAEAASURBVHgB7N3Xt2XJUe/7I9y9eO/NqcIenAQXK5BE040QA5AwYoCe+NN4YQBjCAmQBxka70F4T0t47705cD97f+lQai5Te6/eXbWrWfkwK2ZmZGREZOQvY+aca9f/+l/ncvbA2QNnD5w9cPbA2QNnD5w9cPbA2QNnD5w9cPbA2QNnD5w9cPbA2QNnD5w9cPbA2QNnD5w9cPbA2QNnD5w9cPbA2QNnD5w9cPbA2QNnD5w9cPbA2QNnD5w9cPbA2QNnD9wiDzzrsqTQu7zLu9yIZkQekbOOiG0v84bniLRz09kDZw/8T/PAMXx55vkCLv/nf/7nXrv2oudw/td//dfQZ+LsgbMHzh64KQ+8200JulVy4GmgGbBeBUCvwpONA9bTZWowTOWtcshZmbMHzh64nR545mTBKw7y9W2AQirdBjVuZ+SdtTp74OwBHnjoIXhgDhG9i3rqm2xN0Ud4joTFptcqtl4psErYrVlbz/TZA2cP/A/3wLs+7PYPDkasKDlNbFzpGzQ5sa5TNsLVb2rOt2cPnD1w9sB44Bl1Fhz+euf2Hu/xHrDv3d7t3d71Xd81cESoR0+N22pcxx27BJn/97IMuCO806sS4baaf//3f/+P//gPElQqu6LONWcPnD1w9sDGAw89BIM/Jq3JJvx9r/d6r/d///f/fy8LIFb+n8vy7u/+7qEzIK7eNVBGbFzTLaiFrf/6r//qGuzCWYSrSuXf/u3f0P/yL//yj//4j67/8A//QCX6pFjXvZLPlWcPnD1w9sBNPiaHg0BHXjlp4FTm683t3gmIRxNYDDQHQN2Wz2q6SGKfLCoVHRXA+57v+Z7v937vFwTDXE06ukUreNSQUKmj615lwKsCf5VoV9a5Bb5BMDoIdguCQ2pXrsCJ2L3W3VWXv//7v485BWjilpJuVwRX43a9xl8Negg0x8wUxHa+nj1w9sAt9MCNQbD1z7wgA62EFwMEYRxwyQuHMEI9hnpJZj/4gz/4Iz7iIz7kQz4E8d7v/d6A1VV98EomtIWk3dbXLZzVpKCrpE81hF9q9yz1iK6ItNq90qTCHAVDxJPVFwcRaHaBZtfqA2sYDZqVMDrA/ed//mcw/Td/8zd//dd/LXH+wz/8w9/93d/927/9W5okedUhVafeLRpD9cbaMM/tsEVM/Zk4e+DsgVvlgYPQc4KWAxD6rnSi1CAGGrqFlUGqPFeiqqgJN101DQRDYbeOF1wD3LqAYL1cldD2iOZGb9wjPFdsOiJKE3CEwiEvCC5fntsg+K/+6q8Qf/Inf/L2t7/9L//yL+0QeoXXQ8iRFaitPsAdx0a4KjWluVtEfuaQtemKpp3Zzh44e+C+eeAmITgEvOKaxwxJP/RDP/TjPu7jPvqjPxoBbd/3fd/3Az/wA4Hs4Cx4BbXgFSIH0DoqpbQInnKtNa8NOAZDKkMlxDTFWU308EzThhhpUz9dNCluq+kWG1cokxojol3LiEEzokNkkA1t0XBZAcrSZAD9R3/0R65/8Rd/8U//9E86zuhDGLTRXatMDfTUDPOZOHvg7IFb5YGbhOCwIPOigWMoAD2dHrzP+7yPKzwt1XX7kR/5kSD4oz7qo4Jg5wwgGI8CoPUijYSg9lY57qaUgby2E9LKdiW8f/d3f+d0GP4qf/zHfwx/lT//8z93O2caMBobUNZx43Y1PKZSsQHclJ5nOWcPnD3wdHjgxiDYgp+cC2JuFr8DhDuXRcILcyGvnBfIwlxAHNq6Bs1S2jm3HZsT3vUSXi40lxWGX+hpqsvcRlSpY8TVr7of6TWjjMAZrl5uK6MzTjWua02VnFYu3CHGHCVDXoDr+Bg0//7v/z5E/vVf//Vf/dVfRei4ejuZOX+tx3YuZw+cPXALPbD/S6wTFA1WdLTywaLTA9g6Ke2Hf/iH/+/L8rEf+7Gg2C1QBrgK1Bi8RpPQNR2I1aqG2E1TY+2Fs5VzlZbMk6/GUlYld4VvatxualbdRpNOGNp4uE79DITmAXAMfyW/5cWeGz7swz7MGUXny2XEzi6w6ThiDb3eTv2ZOHvg7IFb4oFrZ4X31BtWAtYP+qAP+j+X5dM+7dMAruJ41/GCtNcVT5nvBp7ghRLaImqNWG+HhzJTv1cxrepnlOPMeyVcsXJX8mboQ3ImkYezY3jSUrsdCA1tHVMouoBjgNuRxe/93u/9zu/8zi//8i//5m/+5p/+6Z/OQLqkw9ScibMHzh64bR64dhY8C3sI5wYdaDq6ldt2quuo4dM//dM/5VM+5TM+4zOcOUiHte7i1MYdZCpVboj1dmicK72Rttt6nHm3+9VrdiXv1uyVNgcp4W86r32nngMVzxbVgGZY7HTiiSeecLZjk5MXg2OZ8uUx8l87XCZnUFgvXZI/lXtVeiCVqUdhZaOnmomciHvqrwsrYis+k7/rhISbhR5EpuNKoNsIkznMCPWNkhxXQyRqLBpNELEhpjXhU4O4qTJjJXBs38jHpqwGYlDjmmnT8ZLxHc+sYz4GTVld33WCNK23m9F3b2cUxOiQ2GHe+Hzkb8aamZqOK0Htbtd4G2M16U5ynpkh6jJKrgJPo/8b767eeYwcgtL0k+TC2U/+5E/+3M/93M/8zM/sDRs49lgt7ZUXGwKbXitx9XHPnBsPiHj+tPl5KRfsyoudFDsm/pmf+Zlf+IVf8AZPlwmj6T4TNzW3gUgrV2Vv0I+S6yKZyiFGwtQcIlZO9GaN6bWpLM5b1UVyXaofWsf0V7+BdU0qY3CdMppoDQ6m6WSCzFEgIZmzDrExcHes4xC28meCmjyzWnF8FK3JqWMSVsl5TKuy1g+N4UjrsN2TaKA0X72kY0oaRT16Npt7yrwKw7Wz4HEEIueaJ8mv92zw9/+7LDJfBxHqZW2rEuPuIdbWM30VD+R2nEWMFM+RDm87ZBcZINgH1PY8O+Jv//Zv/8Ef/IEffaxim7K15pbQzLFbCxhhw6j0dHX84tTFToOh0F+X917lY9BXQRPIIa4TsaSpJ83ROe/1iQ5mDIomxYEPtrk10GXjxZ6Hxjz6kEzJurt6TCGQWFboMmJ1tFOyZZhTyVispiHmXo3sNeq6lYZjoLE8DOU38gkx3IhKPRqqoS0dFATTqsSAnyjesNP3pkEThqS5KjGPZDUNQVTnjfgZO+OuRP50Jdz1Ut7FoLoksJq6GGiEqyFfzOQ0tBoMCjneYBOY8utwQ2MzRJ7JHBLMnbkwhBqcvJcE0nCqT7FVyKrP1F+LuDYEr9Iv7X2W5Nep7+d93uc997nPBb7g2IFvaW/MtFRiXruf6dM8UGgWJSTwbZEhhpz5fNZnfZZHkE/6pE/6sR/7se/93u/dQDDm0wZ9untZ/J6ZRI5FK3gyyqA+iLaigFerJTXE0nFDYoiHNDFpT+qW3ywt31/3nbV674mNm1fxBAcOcxysg55DhsdvINLwIFx92H7nzh3nQhaF9QwgDGcBw0Em+Bmk83oPK6nHoiaRhg7uWjXJOTTo1euNyEaz7xdAfbw4HjOEcfOnyuppaxeXSCH4xFV9D1i2DS9+nXGRmQJ75yKjVg1tRc7H2NXmujatNIdTlcOdqvWqg6jciy314k9trYp6oSJmTC756Hg0kfZnf/ZnBB6ZPt3HCrReIpAHZDNNKCwG4uaOD5k/zDPvG90a/YTriRCcC+xsYu4TP/ETv/iLv/gLvuALPudzPudjPuZj0gzDqo3bqcmnc7uynel7euDSke8I0PiFZv4U7oowUsSl5adJLmwt5fb4Ma+39xz0PjDQE2zdvXvXMrCojCjWxT0I/q3f+i0/IPQFXlCiqaW4Vyt25Q19ueLjP/7joRtvoFtF8M76dFBjfVp1Ni1PblBYq74806rzPAE0LeZGyb0NTbG8ZyCExS/siQJbEIf+bo0IyIyFx5IGXt6dQmcY5yfpxBrdEMYimb3eWlMVZh3KFvcae6QyGHriiScMMVYMv0GNRWHm8ww9YRm1qWdFDwSnJz/AIFNgLtgCKJsLCEVgrkCQqXTblXzgwOoP+IAPMNyMvhIEDgQDO1PMMyTzGNpYRsejS/GAmCH4XMAonvzMAldrdbV3ejuNn5z6riOudAozn4af8AmfIBLMYPOrKQhmOJXMmo4qXcfkVdTJ9IkQ3Himiv30lv9+9md/tumknJIvWELjyuinFa1yas7ECR7Iwzry5zhzaK1WlHRYDFneb3rTm6BYo2BuCk4Y9Gnt0sO45fqCF7wAGBmLqmDRspQ5/sRP/MTjjz/+tre9LRjtekifAk+r4HzZy14mM4AFlhnDFQM5K5fTQUBr2MJ79NFH+WoWnjUPYvDAL2A9o+hLJWxqACUdokH8I488Iv7hlzeisADckIynLqYDMygEK4QDCOVnf/Zn3/zmN/uUhTR/BcUK8hKFnpPNzbinEXZfwkmDnqCTJqschkBeb8s9vHpypbY9g84K/2idJUxnZrqaCIDoBYPd66d/+qdFlOxYgI1PDLEZxZ767Gc/+/M///M9lhluVWClyYfCsBLhSqxCedj3i7/4i87T2LKR3K3Y9vxNvoCBobModMHA1bYQbl/HGhqz4SivkMMJpuCLvuiLPMGYOPo0BOInf/InPb4EwdNdq45z+1SIpwTBzPbZg+DjCFsoPVbNUnFqMumm9H4qNj/UfS3mSZRyaVdGjW/lv26lBnZHG7jVPibjwT9dpv6BE05RqEoxWaSgQqSq5FFiYmW+9a1vbc0cV75eAFd+IAXzcGZpudWX30CGAn8BjRpX0AOFP/VTP3U8YESZoCUHj3TBNiMOoSN0AyvABcrYNgA9LLYi4hk4cNu8mLgqYRkgo54RZS3gHnZ7jwIFCCR5NHkqBNjVHXaE6SGOGtsDZAT6En+vzeE+b4NgxqbqRIguaT5qtH8ALMoTwo2+UlcJoPHUMeZoY4EFQG8sLh05u4ShFSO6EgiCQaEt0Fhcag82kFEEyYCjIZhGcxst/JFzJPZS0n/9/M//PCXx745VjWlFdOV2zrcbcYVxqydfQQtLQ9iw7UBZmoQUTkI1p10PqngVcTZtGvOvSAoaUppal/q/0y5RU2IxFI5XGeXMs3pg8Hd18vhTWIjRlrGr2fGBRIE4U7NKuz00yACO8Fegt8yoTWfQAKEU+0pB73pPtS0qtsupISw/6JL50iIZKNRDJA24JzAe1wqXahLVjaW7elf+p57otfjhlwzaGYKBAiYMii6Y9c3z0zFRLIKAz3/+88Gunzj+wA/8AChhHbHKTUGw0ZmgkJkCjQ46Ie/znvc8Owe1aQIcDbqux0zICjQhtdrJbDlWvU1L4iUX9nQCHz0rGCL5rjGrMbS+NOHJad0Q6TZOQwSd4JuHYQt4/dEf/dEf+qEf8gxEDuF1cR0b0YmtCY2obIabWwNhSBoPiBalHVRThfL4ecxMeZiQmIscNbMxxzAyTyOuDcGGZzkVM4B+6a1+bG4OZuZ2NYtht/5cc3UPrD4skoqb1jDnWzDqLRj1iTVBV5d/nzktV+ArxKWflrSkhrY0Zw4gg6RWiDXQuywReEi9erHdC0kF3uHMV3xiDVvJHqKdMxbJronKS/mwtb3ZumIghEyJueffL/mSL/HoCoI1kTNAE+rRxFOwKzkp4IqTboplb78xO53U0wGzW0MrpBlIX10QKdlVJeaUwYkwnKt6V0WlEfWSsmka26E8N0I0OnsyAMQwDlu9yCRB0X0IehoUgxpXtwgbBvM9Y2kivNE9OsxJfd3xJ3O0RTQcgq+Grr6xqoS/CmChsGIIgcEc+3QHC4bQS6Gt64wVUc3QF3w7hQReylfNhYcYpulFB+wIBWFL8Dhl5zZTidGrph2pp1RcG4LTb1zAI1y/UdqtuVHoWtycotq5z3U8UEzk+fqpkVcK35aK2+L1OlLvKy/lJacg2BMuvGhrF2kCyWMWyIC/873zIc2YiV8WLMVTEG5jJsqp4m/8xm+AYKcBOI8EJ2ZlHQU/DSlmxXq4ftGLXiSXBEbhHU4M8SMsCoV8QlytbUVrqzeVSNOaWJBksqwmTegZWivaoOrRXcmJgQQCezpOFJ5GIS2ZTTodYJnzFuBr5wDErMCZJvVNpo4evfUinGmQ0cawOsoQgkr6bBOS+xOi9dd+7deoQYJeanaLemMpeAzhqIF6RBlIdwaWOmDQN320UpIOTupNnHqHUbA4G4cHoeyOeM8aKhFlQ2WFVJKZxtJLpRLhKoRkwfAXQdWThzukz7UheBVk6/MkZT/0nFis50c8FGXGOnNrxzN94x4o9AsdwoWy9ewoEJzBtaJtBsV2WtSOhKeJkAiLKIAL2lyNkkUWCdSQHXtFIx85Mjq7rGrryiuau3fvWletmda2iA2CQUCcR0RNE85xrJyIJsDXKbMsWxM2wg2qSNM8scJ3PjeEXla1VvhrgdhULHWFegAIj0Nh5rBLjb54QN4KwYRrgneX6eDFG7PRxCgOKGETo2DiaKKLZWh0+X4fXViGarj0C7/wC3285MSTbwsYzAi7hRNY6JbmIFgltSkPHPmQYlJmgEg9olrX0kY8+lLY7sgc2Erg3pJ6muhvlr1nY7Xu1RDIsZCEkvxjlHYs9UZ3HOGglm5Ohym5K3+E7zYdqdGLRZ6ubNWG5lvMebKJc8sPlPG8QgcaNlBXPKeNu1HpKUEwJzqm4SZnQyaVis0cz1JOmXDZjHq+vXEPFM2JbRbKGSUOZRCmo9bbOSkFtMX5K7/yK+DG2y3aTghZkF7sWAYW5D1DH4PlZDEr1k9CbEggMtiSaLut6dBEzCj5ratKK/aFL3zho48+Svjal0DCfQvlOwcmuC0P1RGQGQv+wm6ZIwTsmAU+4ldk5b/0S7/k0RvboJKO5tGI1r/XqjAIGrKryVVv9f3gD/6gd61AvF2WPqltSYJFKAydIbuORrdIbRuOgOEp4Xjw8wnA7TsHa1kyC4v1DYmgrUUNE6WBvvpw5AKzVBpFXxKIlaLKf21sBhJyq09WGjPNjctAmcF3f/d3i0xyFJUKJW1p9jZTz+QguFY62E2dBpR0j1itQ59GiLTnPOc53sUxpLHIMXFUNR1tnyYFuNmBZoNsrOE/bejpdW0I5qzRwAYoK+EgcalebPERX/Mm/QqgGelMPN0eMAUFpUVVouFtiUC3DidcYphJfLpVuq78IspDle/qe762AOgMesSYpQuCBRj9Ycde4cGNtFFeE3Ns1hWZXqwDLM5RidMa2ytEZY5aW/FbscAIkHmiH4wAWIQDRG/hOdyLIwTlYU1LAEFn4CWDY6Dp8FILxnmR5Y2WA25YfGRGHHoYFwYZaOaRYmbZ6oPdckOmraoOHT9vOMYBbTCOb7U2HLVhN60o7CM8EOzlLbF8G1zipDxPSu1VQmfm2wvZznXNC5o3yKcDsYB4Rt8lMJDM/551+Gpl4CJ+MDoe0w0Bw3qjGIIJbai6pPxKrHKuSOcZEWJfAVxtSyo5mQlmByhDM2ZWOEEGwHbxY28zCkOuONZxtoMheKhbqueFaHHwmte8RnB/wzd8g/ek7VQYtB4Scq5/OjwgJiwYbrfInZl61f7jP/7jMizLrLmY2H06Rn+KMgsY61x8S9vlU5LKchN2WY1gqCctCxLAHYJgSAezIIW+VvVoZWkJVIU3qrz6Esp7AlsKCWs8gEs7JrxJ5nD542tf+1q/SJRRWsCGyNuuIRr8AnBaPYMDFDNlR3HCqAYzaThV0ip6KtUzP51d8ajBwzq7ArQaM1NJa8w4EW7Bh1dwTiGkciMHYT8AKPLoV7/61bSCxZyfWxKFB8FjENMe4+nBCThI4oEUcDWKpJ5wiT8UPgTBxKbPyHdbpWvDUeBHfuRHGCsLJlOlsejPwEBZjZJRqyEn0HlJLNkOASv5agg3lTZFU2bP4147AT3Vm31IzV3MNJU3okNqnwjBdMoGhBmyFdtRLRLBJ6s307wmf8mqExx07nKCB/hcfLTIPaLKMuRHsGydrGbtBOH3oUvRIvotA1h5586dns3pb3TWWQZOeMGWA24AvVcl6YylIrUpr0mmRU6mKHVEIFwt7GAxONgrZ1NJjudxBwI+RBPnYWLOJPnnfu7n3vKWt8BfIJuq4/PkuDUinSWAgIYhakyN+VoHCoymr8Wvl2IgOuPMHIRKNRCEW2aIGLp1JQ2PZQgxrUq5qv1peIiCmPD3+7//+/36gEs1kdboo4OBeEzpOMuMYHOgLCVEKEaRS9qcgO8P//APV7l7DX8Nin+u2NAxq7clUMPDAaSTDvcANPqwBSYmJyG7o1y9xgzaR0uuzexscjYhR0P2eDVw2dWgxLLR7ksxv/uwFTXQeOnq4+5yXhuCGZ8UvkBTIsJDxOte9zq5sC3Ck5pNjOrmb0Jkd+xzzY17wAOjzFcq0Q/AemLaHeVGQmdX7FOvsSDt4qDKqyQnD6IIatCWZFfZnGVgqWNQ9g7XsZi+CNL0UgQhBIGPclXAF6ipD9f2yqlvTcEE9LErSI6szOlCCJ+/6lWvcv4g+FsL5MfQLdpKUaqUrFBeUyctw0OUgRTEyEe4bRFNqxq93BKFARHbDIFBcUtVjw4gmCftScmpiZLWrJNruAmLVZKT5tFkNop6SGRe4KOdBg8/kKk+eNIq6wJnq2d0XwtmYvWlA7e7VTB0HcKtbQn+Uonw5A8PUNadXaPhOsS16A43pNuCitrENgr4EiSiReApFGAdPwgnVtt4snFUutage5mvDcFJoUFKDJHqvGOmOciWa0rkC/GrZwYav9a53avTufK4B4pjPKsb5SnSQ1meFSX/RZf/Ymum9hLHB7rPrSJEsdTZ0ncRcqtVB60OGaT5DrinvtU4a9KacdwJgls52LgL2FlUHvwVNIdcDnWRY46cDTEC1VufpMEyD62gp0wwyfAC8gJ376M2EtyaoN1KBxfK1A/PTJOaRh/11LRwqK1jdFZ0baxV54TALE/ZgIPyg4+aONlOJpujuefuUSaCzAicERTmBMbKAXkAFjtWlhhqzZNQVWpvycNi6EnzFBhoS2fM6lUmdq6jOUKl4WhYpWvFFIw+0/GehL4NnVFzS3lvR4UTIn002dIozy2eVGxaLGIO1xkFZANrkA3TwLFNgjLjqHuqcYThYkZvqlDI3PjrXF53ysI6WhrhWpWcWCRN05m4ugeE5kRwbsyl4uaNb3zjy1/+ci9VAI0d8eoybwOnBcCQbPFoH6jBTTEz6lkS1r/SGbH6VhQiNg6xVCwS6wfiFG/Ws3VV7gxEDFGvVfIMMcTaCsiMaClKi9ATvdDcwYJC7HS8PQQzgQUIticN/qaeTc5SVRDHFSYkhnGILs6FbTxgqKZc6nEeLvvuwjTlIl1gsavbavALYKWJnqFHOEJ4A3QKI6pvvuqYwOEfCceJsSI23U0oVX1lUSypId9JCOuEn9UkF7bfeF5pLMrY3dnIn3ZiYaZ+I/a4DodaT8yC94qjJRucPwp6TswkO7AlIXB1oTGevX3PlVf0AMfi5NvCWig7bZDzSgwd6nm1DbbEUNKKnitKfrBsLTMKswu02b9L5Fkn6xQ26i1LeZY34xa5NcAJLcg0t0LkKfJf8TaJKrHwkShwYzn15D5jIQ5ZvS4wYxnXwvOEJ5KnFwxyOAiPBowOSXsg9WKDHzhEQYxFPGmdXryafPvbEXnjnhqGs4TY3TmTS3m7XioR0kkn9TV5AqupXkZsdISpVIRx43aNwdWeYfs0g+ba7QgxccCx3FNlI9Z6/DqcGzPJt2HIgs0pCfQUJ7Zqz1gGQsAxfrOUNGGgcxAMuOfT7xF+XIfjrTcJwdYDOxUT4HHY4mGASqorqx4WT1CyVp7pq3tAQPCz4OBJO/YrX/nKn/qpn/K6Cf7a/5KDB8ONRMnVFTuZc/Qs4smx3qxz55XyDstbfUtUJuLxEBALs0n2eUO9k2KfeSIwXwTiJcKKQyfLiqWVeo1V61UUFr1GVGBxvUhAwAUrVhmfX0Xa/eSxynhD6SleSDR6m5xMFsGQcf6ubmtTnKDKBqnoix9DYl1tjZ4VDFov/JWmQ6Xb0Bat1N016IC/nvQhow0PMo63jWj79LSx7ri7qu6tMWIDra1UtSd5nDLQZIfijUOEHLssK9Flf4XFRue9bKSVbQabcNK6yjyZvjEIpmIOYjNjbIb83mSIVLuNhF8oNwdn/D15wkIibhQlRYyX2l6SeI0La1QWcBPoJw90nzuuC9LQ9AevToQBn8gpVVEvcqRIvjljuwyOySpbZnj6FgLi6J7+YtIqclBLFIFx1pSLog9d47dKDapYiisnb8OFddtbWx8sTXMKWJXSPQWhpBJXcx0HglGEiLq6qsTab8oWYdOKbuTbKXuFhW0K4WbBFbNKV56HtqbJbOrFqwiACxOdz/rmBDIO/upo4sygsynauiVkpCGOl0ZsD6hjs2ksuwU16k4lqCXz9WRgODYqDq/gLCyW7+tFcwaCMpWO+3TU61re26vqjUFwk8HI0Ul24ERYjLKEVT7o8SiXF/aqcq68igfMOja7mnB0VvVd3/VdosGTUWC0OwtXkXl7eAoPVogiiY9VZzX6oGoNm6DW478jb9dpspycekmjIM5qkQiEv9awZ7L8o1UvZWJ15R96nAkjLt6OX/69gmlFQBaB3c631t8GmvJCJYADH4O/dNMkeOCIEqgdhxKOqlfuEntMVpivaVxqCFMQnuLHPA5MgprUMEGe8W1dxg2LbW8A0fQ5nL1z+ffbSCA/fojvnM3PWCCJ+ikz9NTsEhset+bRFg7r5ewpVi8WWVBQGFGNdNhG5SmTknSmjyv18PRYfzx+dpXZW3NjEJw2fEpRIyEYIBe2mVTDWlmDpMYjAGYMexU6Vx73AB8qoMejEPD1+wv577oS1u6cfCNRssp8mugxYUIIOkhJrAorUBRZjZosIevBeZyFUSaio6IJNMNrBQq0evUCu3zlNENC0GrEzAS0Er3XosaKBxuZgKzK6cW38EjBtlfIbags00yT1h39+YdnlNbmcT03jtJFwsjqQou0zOccXjJNU5NYrZrQrjXJf/1UD+xqgmXA1/kvZJCimb5BRqIk2mDXdz6+vLaJDjhuFCZ2UzO3Ke8aod5DlU1dgcVVMoRRtmrYal93YEUgbctynIPRipL6cqYwo6qd3gK8kQegG4Ng/mJGJrk2Pcwo9M2Z+ZbX+JXO3bt3m5Jx05m4ugfAisxLUDr/hUF2ac7cLIZmQf1VFtjVh74PnDQfnS1yT8oSfGtD/FirirUxp3gIKuki9jy3WhvWtgU2oCPkHO0RYlFhS/9QoI5Hlu7Khtktf46QRLmt5tbGM/XopoyeQoUtSns5gi3FT0ZtrhgujLz03kW3S35zVPeYq2wgGxX/q9HFvLjOhGLA7wpq/bU2fy4DZOM0rTjRckz7a9KSbPt0zuY7d3mGeUxUymBAKPjXLnVcr1qxTY0hpNtQyKlCHdkC60WLxwKIj8ZsLAgrA5Cwe4JXM/qLMccR9PGUBt9G8mnEjUFw3lnnMsuZR9eM1Mp+tDlApLHKbCPBTJxmxjO417hFZIgk2Z+fDwHffosl3Ce8OFxpClTq6LbWIW6to8aK0fAivfy3f7MkwCggthJqslatAYmJNAoBnS17i+rO5f9RhmZsnDwmdeKuFlWVa4juDjqjYxs5VY4n3UaL21JjnMpUIqJH2v0n6DORYPTUc6Vzutm0FB5Ws/pko2rMOqq/sOrJ3+lZqslMeL1ikCUg1IQJQnQ00cWt4igAT2InwhMCHzxAyzOkF5DX+YNTCDFgouOPzdWt0qBTuSEwjHXZDnnksH2olw6Gg6RWluct46qMU9j0HAadGSXwiNIkT/fOkHq0Ep/410GP+3PljD4dgtOy4c1H7l4HqCkfSUM8DKrxKOHXjV/+5V/Ohuwhp16E8L7pWYX8T6a5i/e4JYKHJQU+O/NbLN8/iACtPMZFnMaZyq678KhsLhDduu5l3u3+wGssPIGuANyyYAED+KQwQsju7uFR9uQXyUrPsEzLQCtKnqIgrmsIjxlIIS1QsAgTW30uhWKTjOfbcazbcft1R3/q/IamgEJ5mhOIHrE86WlagTIASNMhVVvaIy05TGa4pjrmcPFpLNeNqG43leRUQwI5bnXkWLeEQAm/mfYLAymwVNTTs4IHAzbEyUXkeFoSS66FEzUcOMBfMQZ/k9wkco53cUDWcxge2E0BDGLvzp07jiw6ytgos2vphmFzewre0cMw+T1xR/ySQhaSogsjTbnkxfbrkIUNpKlXLjbHM/4u8yMcu8t7NmoRKTT9BBnuaJrJ5r2h82cdp7LbBKrc1Nd6O6/QUxIkTuS5IGOUhLYeBu1DHh57T+1W5VjKJ9atB0l/qGiW1nS/FiG8SYALsKxFqDtnSousZIMGIirHsVqHvtZYN8VMgXSAHQpvrJIBqMcID6M2dSne2rSh2U6OyjGHsT1/gDP1jYIwhEBdx5qOiOjYgCy2AIEQDnQd+UZs25CBOm+Ns+5HcIbkvWXEkmCrFkICyRcOdpGmUj3NjYLQZE4zuXoy+/wZHOvSRJPj0zQQ3O6LE9sMhFaz3u5VbCpPgeB1gHXBj9CVQSW98x0z4IjPJOCvn0X6y2pegIJdQjJjJJwJU5gbXYWIJ3H4+/rXv14WLPXjsVxaGM0C6zbvodXn2ALi6mFxe/wPRr2KAbIenqS9FGOFApRlIoo/8aW1NzmQhckZDlkEG1/JYkoDr2VUbs+BEEE2BK0EMCFVYjCc02cvasqPaNUQQrrZwTOV1xr9qTM3roUmg7ONyXvUFAxpDoygMDS551j4lSzCDHd80eW7bObXNwZeaqweF8bwIYbZZiaHMC9qONAk8iHsi4FYEA8NHVZ0GgsfE2KgjbS6XPFKrL9u7FfvUsDAlDQy20q94zWPntdNX/a6kuxVoYJTcWv2MVQpCDmQb1WODthEYMxTeYQ4BYJnMlLItaCfYQy/OiudaElXMeEqp7BCeMQCkwubUVYljaiR8z+ZaPoFhGTBU5ITMb92cZUajFvimenP5809WhnODaHp6iGy6XufbwWMJ0QZh9XIG9Yn5QWJ0L979y5vICwhSwKmeLQsfixaTlNA52kp8HgPQZpjNNIoU2zXShlIZNw1ieMfYJSXKLMulvvsOqraMyAdJyDESbhDDVgD43iPx9zSc6JooyRLp2msdpCqMD9v1EWgeiiRKyBwFmB16XauVr18wgOKcU2cndLm6nyWVilpTjnWX6knSqupn76J3Sh5/DbrdISYfryjeHapS2JNX1/+ym3NnXBSj+AuBGiyT+BBKzqqUWwbNg+RyWQRsgq8lpLXhuBJaWkzI3Hcert6RH1TuE6zVeE9ybd8y7e4fv3Xf32bCSPxrH3PtKnlIie/fXwmHPlkpoC7NtlWM5Kra5o50rEAUrNW3nInZ0XZnKUo7nv6Ey2SOMViYJdFJbXJQBYBa8ANNBEnG0iawlfClSj4YjrUJJBiNJFAAAvK5NJao2d2TlbgqXeU7ngOoDli1RzYgQ9PokzIxkNjjRXDpotnjhAzmTXJbW1UvkMdPFrDbLobyK7gL0mJarQJFeH+3PCjjz4KARNYvf9kGg76y9dgTj2Hz2ZwSNtD9Y0O2antvS7z6dZYrm2lNNE9KFshiwcwwOU2sHrhdH7ip0CWpPAYk1NgNfyQSlN/bQienoahmU2MZp7RLBJ6p/rwIGYK0Tmip0JdnOKhRTAeGY1s4nJ3OV2lddyHnRbQ4EOmIPP1/YPzUJttRo2Tg6eJiVrd8iceQcOlbi0/2YQr/msFx+3xoSTOOrR+rCKFYkIFFggeCRR74a/ruMITsZfpfrHtYavK6xqOfzrym+kAHK03CmjCULjSyptATWDaUqTGdcd6OvxMQ0UIeeS3T9B/RqGePcPKlQhDvb7EOnRWU4y16+slW3R4qKPuln8yBVt7JPxdU0KtdJhxh4ZZZtPfwdEk/bKzkk+sp+Fk0hBhFOf7fkNhC+kZiIQTfEs9mhMoWuzZHr7dEsW0UNWtMnoijJK2+prQmmboCBDs42KK2ULsc2v3a9HXxrumpDHMh0+sBWI7VXqn36iLnw0sUVbNMKi3bX7bt32bB6KXvvSlVpRDPdJWtv+xtDB1yumLyP7nCzOdS1sM3DIENzYpEdi6NTv+ExORZ7ezNtrwdBRbymY6bq2fM9Ojq7dqki/LUrZS8LDXinJGTHmI0CNkhnCXTcvTLtw82VijKAQaCAHOPNGDA4MCDoHKh4Rb2PI1DJ5U5JV10evBepgaiiiyxOCdragna/5kDrVtJPwpj2MU/OWoXLe54iQnW3jeF7KOU3W0WonCrFV3e2SH7zY/cGyImjbSMBNYqyaE5AB+8Zs3bzYzQ/Q0owkzV/uf+riab+0lajYC73mb/n0B4vBEUiIFHgXSh3XVJL8uJI+qXEcHrUqcmsSAJwnYReB0uac+uwwn4h096E0Je5RnQNDJd7QxDWVb60j0nts6dqteiPhmCME1rjY9AS1964hKDdum7zOAYBErNkZNBASdHOj9iQzOl79AxI9rLfsmXt94InLm1LRONFldTq840/MdCCbHAuNV4d7oqYG+/SXrrHBxIksCAWOmVSEC1TDHMmAgAhxYMOx1EJHfhn+vsRtXuMXfBI3Pk0AHv4iBPqLduKRhU9LBuBJh6GNoflZPVBIS6BZsYRbbsECTlBlgyZ3Z2BD12uh5McZlUU9INCJ6w7y5JRbCGgJ+wQsbVSk8IQLDmvUHGdhFefpQJiKfq9HdKGSmufdjzmf9hwx2d62KJjwMId8Tm50v20kwhFbdsSVkV2F9Fb1sEt7Sy08lDTSUk9ZdpuntmRTeBgypudfkrjYmk5C1cqUx2CrItByk/OEv4bq4wh+oxXBshJuabF8lRGuahzCuwy/8+CFY55/1KbO8YVfI3pprQzC9Da8Qx7l85G9TKfax/lfUbOgaM05Ew+cst/riURCWit96mYaXvOQl0mpWYTZEvXTBU/eH/Tp+yJDcOJWlFdaM5LfDMpHdN63jcN6IjetyJueQ4NY1NnkEN/rPaJ/73OeSBsSrNyjmej0sniyaLRKL0AN1MGcNsIK9VpS8mC1hIsISndNPtxk7ntm1WtNuJXeNx6Y1T4ItS1F2pmN9ITLFLOCeVOyaYKjul2IuVkqFtlDMYoFiesn7pOr+iym7BQZTsztoHa9bnzS2iwq0/N3Dsg2MM4GRGgIpD5FBavksQPEbFq6rSzwq3WKWZnmL5aetL3jBC2RdsFIT+XQmU+LFEBharOq7KYf0x6a7VuP62ocPrf1+g5Nw8GIghxt8zkumwFg0T+DFBFxOX9fNoHOLmRwHVpwvNcGsJm/DHMjjkxv7kNEvxO2LB6Lu3r3LfDsEHAfHJNgn6Cbw7MriwVMmP+uuaXw4Ohwhrg3BBiCukWgg9TC1HCcKrRMOhRpcRokxZrqMHppGS76mui3UDgw7OGL+36PCZeRM92cGMW7hATQz7ckgxqmOZelq2XApY4WLKx6cuW58gqgeg1YL27qyWjwaS4Ht/IJMxAAmbEcW+a11aYEkKkpsHao4lGA1o+gMi8uYcpF6PhSB0E1QZdT46lo2jlenl1zM8SX08ctaMQ+5JhuywgGHDU+NNSmY5URK80U39ZaGher0UOIJ+LDZPHS0+EMZ8W/QGW6IKl0jpv44YVCjx2Nv8Dk5HXrMt2Y7+lTDEGL5ij89gIoWoaKER3TG6QqA7BwASER5YM3b5JsdffWy8XhuMzWrVil8XO1wQB4tGyXBxBmLb619ahgI+nOUlAL4ei/iOgIRypi5Dr3SGAj0zZligWgSEsblcMmfnePxxx9nr+HWXhvaeY5eZo2XzFpBRbJEGLjzgMBTNr2ucnttCE4oyylhbljSbEFhOawZfcMb3iALsB9mJDbMetVlVFejOxvU40TbRt70pjdZYyp5vM1w7XsVex4inlxB4QIaAX/f8pa39PLNw6MZxZOL4nGr8Ikyy2A1WUA4G5X/WjBCWfhii386NiKxa8fbTF8afeEHccUtCswKgmuiPBvRCCgAATcQfBVjR0KumEmZWyvWBEnGveiTK1jPFnaDupbhwjipFg1xStkEtu5QzKKVf0mXLBNzZBkLeMgCDekGbnxxCIMwE0WTBn0q1xVQ+MSTkGAAFrYQO0HeSz7FHOaIFmFDbTuNYmOgGE1YmubUVhg4gYcwI5JTZ0R8LvGabe/qmoch+BluXEc9IN4JNZ/kW03cJaptaV5p2Inz6gyxmbipjyj+SWO1Yi7iJ836AlOuhza/VVRxdefOHbqZxJoob2bNOIBWYFdzd61JPAWC1wFY6FYxVWaXhQGHDM4OQ+9CAQOlMx4dwZXVa0LbCcU3QBfZIoCPoDDfCe7VF88wmuEmUvBZt1IJ+a9t2XMZ17G0cEfwWMEUmuS3QRa39mcrxNYl/5WmWVGCo46uhqg7WpmO3d7ya2FNSV6y2gFZbw5ywoRQbFBAFHmmFofZNd0PmTkShkHN6i71PKYIZomCs3X+tA20E4h5DIJWgVayEM8ukAIE49cLg9UBvDygmCbCFV2sF7MPF0CMOD+k5/DXa5S8J4E/mZYSfbjOAZdKabhnVuivpLmFRgeP2LxHecUyTL4oojb4ljKzVyWZhNAcM9zxbZkU2znk7inE1RUmUxHzfnnEFebXuIZLAqfZPJjguMNVGdDEoMwy2fUJG4kCmuaFw2daGQgxbRsGJW2346YGOkl1PWBJw/EbNPVMOt3sQ5zAhEt1rveu+xQIZoYJoGLXwtFVDTv9/QeL5M1vfrNX+WoEYsZQ7tLP/52tzC1LgmkSCORfgeIqDjzZOXh6JkEwD/AG2/OJK2dapWbX/z/N8M7jrJl48BdeeOpbF7SaEeLWEnr00Ucfe+wx/3EqOqc1QdiGf8RO31tOFCcpabXIQFnnpAWIVDnOZCwzrRBwoPBhvlW5CrmnvQkchydketHBMb1FCCmErjPKEisMOlrw6mfZC2zdBTYeBT+xCWwUqYZQhwV2FxI00XbGGgJz/FNzFUKXkWZce7z/2or+9KGhDduVnFSSF9MQzkJbHg6VKEyCWCKKbphbqupBEtyRNPhLDpBRvnVIpQvVl4DfsE2Iqrfk5R+0cuIBNBuXAoaDwmZcvfl1dMtp+LPOlQkbsXOrIwxxfmJ3zISUob/9gwll7pc6HoNO4eQRodyIc/KMUXiMYhAvZ1LmiLGj1UqcAsGGKYwIYrzb8aMNx4bvaqqo4nDH4xUUtudgm4E1patrk6omP/KIxw38jIyNwfwoMqb7Q00wKv05jcmSNXghlfC/oIstESY4VgO5qO1NZQ5Ro7htxXKOCJDafNmXfZnzX1u9aCja6thAdanXzNc60O2kR22284xw8swLs0QIM3NILrVIrGHryjrhxpxzdaMS4qrkva4USBRCEwhTABY/Ew5DrUDBqSZv0wqWtQXWZXTIFkL437xLqGWm1giLenaMYfgRF9pcFjooSJUjp9uVf2hNG2CyskQaBiuUAh6f7R+WKm3dEk6sqy1EaV1P4GlKIMJ6BEYd3YpbKIxWb8G2ltFGSTfXyii2S2CoCw0V3nDmLhF21EOTuvOqxwU5mVmWuppoauh14ZQD+1YDMdY3Ff11YOrFr8meZxT+F1QNkQ676lWjrwL6bTYAzZOBXrxk3hnuVhi4CjwaGmXj/ENi1Z8CwRvpGdAYaIR59faQ8Qr98Iu2UYKpWWuCw4INgd9DjakV62z2p0Xtfs8ACM7q8QMzhZE48D9fCGWR57VJvs0hXMc/euWlfKs7QqVrzObek4dX1c5/eUkv8YotHoSAUKlUWS/0Q1QyGd5xhZAQ6ErRpYa7MFi9Nm8Q3KJivsLG+h4xNrYNA5njsRHCdU2NPcCWKa80nGMfi1zW1jRhwI+T2w2NJn+UdIsGuDo69DfvHr3RlMevqS7YplSzWz8Me4kxKoXxJJ/OnlCNaM9WOtlkKfkNkeaYEzs+dItW+N8Drp3DFfiCY5VaM79eXUfmWrlLY0sCVY1u7ZMM2gTz3bt348fgVjJrOId1Ijw9dUn5XbHV2AsJgeZACXM2ktahliNyaI6TNNfR5JA0Z98gmPd6YqgLX9mPeZJulvOKdYfkrPWnQPD0z8W5T2VxhmC2N49cY99gNhXRPFt+h18Nm5sz9ExeBAaLzV4HofKagewtno/an3VZh0uB3Jfw0fCBEHRgHc3X0VXOBKOZBnBtwtahYr/hK/yx5QdXtyrHNDSx4yVR5RTP63X5r1NgMco/M6he1FAi6tUQw/NQEJnvqggDOYi3bTI4HvMYyISa1PuMxPsccMZvgiTvdd21VC/OEWnQ3DocNvioxmJT6qUJc7QuCAzWME5eNZUQuTddIt/idD5YiMIR/D0C0lb8o/XFb+qdHnrusaSJMoQuRmmsbg2ku8JqRpV9a1IvDPRKYDUqIxLitjLzTo4acuTCROnLQE7jSefUnqU4k8Ik06TovRz8Yp3ixM9X8NdrHqftNg+HZofghoSGYy8vWfvVqAQFPMBp9EzVODEYSA0NHTeJba8rqcGZA7h8a9+Vc9hr4QN7yTF3Ch59icozhOR2w2UaS5mAwSiaWKHQP7Y0GU8+6bx3/BsDv4kxunHUeAkTmdJ2xWGx2yx6R+ej1FOC4I1kOqlhBoVYTqGyV9DglBPKcEE8eQonQtGrKdcRQzUqgVQriuVoiR7ESUJdSOAaxa0SUWU1D+RKjcyhScpcqHippKsacSNE5BG+pIa/DqRU6hIKM5AfLntc2HUh4nLVZYsmRF4Si1/7tV/rKcH6F2fCIh78DTe+qv6hvjKqwBAMFj+wgwuw48I7l/gFWfye0LoSKiydKMpXu7Zj4HBC+N9BYR4jSpSCRVijdfqqJyEe124NVA7L+d5lOaEOiOVEkAIomFOjBF5mHPKS7HFHQVj/sCMIIJzMxKaqjg1HDRAme7XywRmV4vT+gJL0z9LRatfStQYbfiBoDyDTN0g09/7gzuUPN6xZttjIgZ1R6AZ2YT38oq2dTy9+po9xXTeS3SY/lfBIDI1ClFnLHD6htiWAeWwc5eMU5Bzbc30qqc+ZOoJm+hCu0EoRDOTzjI7YZKmmRmvzazi+MoQmckwEreS/QNzeNgsqYrVopVNeR3sPTpPLOQQqrMgV/Ab3coKB1u5H6JuE4Iaha1FiFm2w7as0o6sNhA1cg5MZOJV0ZQbCbZOHIZorOZ0r1ROlrykRizHgadC5JjBRU3k/CXoyf0Zc6ZqYIyiBiN9ceqQSCpiprUTkEFdFd/WIy/YL5yBMv13N+a+viLx/kwVzL283KOYZ/ZlBbCyy2OxecE0sgU6xgUF08SoIBhCaVsM33adJBJZTS0WBY0Gr1dISdVASTg1zQjjfFKhEuJpKWKCgW/ZWNZXgr6ukMpn0EbeAjMKQV6IEy+rVtDYK2ihdq2lQkIHfFNPKvLfmNdFZMgjEWRH/Va7JBKy601YXOxCtPKpbWVAPnNFc0cQVNOcHQ0O6PjVJ88ZK/3yihvDk18pwbkR79RcOtOoFP7WzFP9GCK9CNKDpKYHHvOGnkiEynEwKkEPseIYf+JwcweDKHCck4oQo+tuVbV2adDGcXhjIJ1zNFUs28hvJhvCUTw2EdUcZWnERlxruigKH7YYhOIcWeTRDgEt/gMMEILhSOmzK1TOp2ULTJguZhFZfE5rjuJK/xJlQ8KblK77iK8R3bK4V/PV1O8STjff138xpyNEk9djCJ8yxFfn+wYv11RXxuEaQEL0SaDLNuncp8l/fn/Vt6QwUg+szrDAwb3CvJQQLwAc3WpYs1aTe8rC0IJ0at0VUras3EqWmNQkOxFUHOOTEaQjSLKpNWGodTeIcaTDFxmB92iBNUDmHKwkGcg0OiLVcIYKOSRs9q0kHtFIT9QAZey179qrH40qgNU+gQtQon2KHrnXXSis0QkDKbYUiJ1inKnmP5gjhmv7GojZN0lzTqD0KN6Km1HOVfvoxhQdZgK6e8mECIYYbCTqO8oZ2qwkK21BtV1mtYxBME1BAZw5X48gCOFCbwnVU2c7aJNo5JDpOM1LMQIRTAFbym8rUTpl4qtm9TiuZvuMWfnxoODojCCSWYjoO566Q3ZqbhGADjyXoCu84w+UC08B+uko6IKkZze+6sAFz3kEjlNEVg8XArSw0ARIB8+H1KEwnLdfrPvy3gaB/KuUQRtHZJDHcgb03Ob4tLf9dtc0JaswrCbqsfmhty1M8Ofry4Uu/9Eud85CvV/yJatxRYJX/MNL5JAfSn10iAfSMr8bejfluh0f3JmL1gBrhJNFr2UxTvaZv9TMRQ2zqaWVlKuo3fePcVKbSKm2j4TRBCsLnNmmuJl2EbMRO6yGCHB2NhVCwEc4Ja257qK96arvq3rhJQKuMXvsKeA8Ha82GJu1CiXde7PE0y/mzmrF0COZbUMrU4NwoA2fsi0lY5cS21qNXOYea8JBpbxiGdUS0spnK4dxL3BgE86Ox82kjNVvqEbYyr4x9JgE35bC+T+wJJc5mFBtCGUUJHDCyWjw4gG+bmy30K7/yK31oonWYbxVBc/rkk2j7hyj3BaX8lxWemkfhYY7f1dYyreNGe5gHOj9ketGLXtSvB3VsB8KckHqRoKw1I+1hJxjFtNWK1VK+urD8SYZhXoNqWglBB2QbgTXlwJV/2HZ9i01l9eiZtaJazVpJzqg0XWJQrwY9Y40ym0oAlHAMa5cN2yon2hDxTC8EPxR1ZLqNZ+TriHYdtWcUzOq7HX636pUZCB2bGqXbkaZpmNFKw+Hc3NZxmCOwDf90qePM726XGBqrXpu+w4CYpiHqWNNUDrH2PU7fGATPMPmoWwopaiCFwxog4ixCjS1OjWcrj41aJyZGyHQXFgnURaUdDwQLPmm1PdbzuKSYqCZg0/2B3LJloiHNpRh0lg54UHX+6/2bo710wxBzscgz0xcDWr1S/msP8+FLvz/2/mSs04tDBovd1ncYHmoicziBr9CulalhXfWuKjmtLtiuYjjXDVtdkqaSqLV1BoqYXkM07lxJQ1fiod4wI6DDk+3vBLgrT0LU4HTtdioT6LYuU79K2KVHVPDkdlVsQxeEhNRrHWjGnSHw5H9EpSb08ByqUb8KXNUgU1NzgZgmhLBv55jKzUD1SitNQ0Tr1aBpuKvnKm1Mm0rd+bChyak7Qjmkz/Qd4illkU4DvAW+e/euxBYm0kAx/EhH0Ns1XdFcBjRlcwhZrTJdVu/UUdNISKwr5HVO1NsPL8SdcqjkiM24Oj6okiZMznanKF4XOBR77Wtf6/yXyTL6dMOJLQ/MgtSUK8YhHh18/AB8X/ziF/v+Ae20Uccxub7dukaQg8fxqNQb6EvD28YelFtOG3ecUPdCoquasXTYaqp+6GHbq4O+1Q9b62pGSbjWqRn+tYtWt/quo0wXTaNkvVxNEOZpinnYhoh/FVvNRrFhG2LtMvSINfrQKe82NhISMvpXH0OVGKZ1I2eEIJITw4XQS3yIWOmRqcvQMagZR9UkKalmwzn8o0A12IYYleJxHSFjxTStRGxqiEra2nc4NQ3nVB4hrp0F0zLj1+HHhipHCUTTrJcmsAtNuK/U1em+eAVPDuPidDt5x5gx3icBeBHliV6x+3mHq9UPEH0G5NB5or9BSSA2ldDp4PbGS8MRaxSlQSljt5Dme10Af/sI3/v6GX2Mxa8XIRGuCeQKG5uXJN65+TvZ/oCcb+m9uU7CmNNw9dI0t2g8bqshs45uDRd9+6+j9l5Vx5AN29TrtdJ7hUzf4ZwgjD+GaR0ha01d1Gz6rszDH7GOO034p36ItTWBq4Rp3SVm9JUYsetYaN3vKWHtO8y7chouhq51nC5DNG78h+hhHmKSmGqmfohVgUP0LvOmZrTaELtsa81Kbzruvb02BOfK1v+s8Fb1xVp/MgWOwDxIQbMqYaVvD/2gyLmEh2u/DQuCMawIHmBQAABAAElEQVThmyUjsO6uZAZeTzzxxCte8QqnGb4N8GGWSswYEOugmV1NQvY64rqVRCmJdaWV29EBTRnnDz6I8VMf70/7DNMoeLTiV9zWF6EyHSJqdW7jsMUZuuTXKYQPdOLZveJPmUQRUuHSntSMu9vrXHP2wNkDD9YD14Zg6lrqs7wRF1iyPBRjcBscDIBmJGY1sACyeJR2HCEj9pzu6vWUpNjmhif5CWmg6b4SEkyfpMAXmTVmUAXQ4TvQCW4anYR6uabA3D4VgnAl4dGuI9BbbHb54MnJg48ffGc+7990oW2cuqBXOVMv/3V67ns+v3/1/YMdy89SRv4RIoGphI2feWN0Q3DvutUdEXVuOnvg7IGn2wMnZkZBD8jzgOwbKWeyUtoWP421KoMC2bC5xQALYPGdO3dgqBNSZwsgmJDL3u+UEg6CJAoDQnf1HvZ9ouR0uA8GXNUrKYBt7as+CTd1JRycEYtQEmtoX0Q6gX388cflvz4+Y11sGFI+zrrUvXo1CMXRCtj1g0A/PkY4bQem6meUjQnV573MxIzHC0wfYDjtcRbch5BasW26n2/PHjh74IF44JQseBSVgTpDULz0rzKMCALUDGSsRJy9yoTdPnSVpvnQWt7nbAGekpbAQAR/AsvdAqmEY4AsMA6/M1NsvlSzMTjokFnH4zq4dgi/8Fy3UKZc2zXr0tY3g1DP5+i+fHAE4SACHLc5GT3sy5yBywHE6iXyzrgl9Q4fHP7633ndJvye+mNICHNoSLLDEC6ar7DJMWvYEnhdq8/8Zw+cPXCzHjglC7aAFXpIOT0s91mCNK16y77WFI0eBImnSld44Sq/g5vkQArHC3JhJc46uirxI1bJISAI9uCvQF4qQXO6xVZHfSOqfOpXmmcpyaMP2tm0k4c3vvGN3r/ZUaTnIA+z0ZXhDHbTSuXKwBX+KN9jjz0Ggr1880k1/2zG2qs/+aMMBl3gr8MQX8LZEjwuNIqmlW2vqHPl2QNnD9wfD5wCwaOZTBYCQj3nCZa3PFTNgMWKCLPmhwiY3Co6etHkCkl19+1UWVtp7wocQ9MB3a2BdJRsgm80lWCWJukkfchPYU2IuR0rTibGQIThjO7bL+cPfngi/x38Tf46bpqoT38EnRlOYQe+fvP2yCOPOAL2p/n6cX2cJMyIydy94iGHbxWbAWUk4zYDn6Y1aDvWbsdzzdkDZw88EA9cG4Jbw5Y6+LDavUOTe3rUpb1E2Amm+uAmvMDTrWsETk3kINSg8egldQXEQAd8EAiIJW54wqmuyUwHdIWQWkG2Aw2JJ4F2BUUKScKUUWBqTiYMTZqSDuTAX4e//hirvwkH/uwiDEmxGaUubhGacg4aodLhg5Nfvzz2/s2HaI5T8MScBJwRe6+p5GpDcjrkPyB41ateRR8/JlRpCNeryNkr/Fx59sDZA0+HB64NwaMEOHBcACVdoR74A3kgA5JKQqHPgGxdWv+uyoosgREevSA4IURh8O6IZMwAhSgIUq9LAe+Uz6oPwgxKk7BPjbMIGbpEuHPhFb8I6TZgWpvGwA1RF9c00UWhqiu887wP8pw/+ATCD9vVaCIB/8hhYJWXXd9xLoyH1Xfv3vXjY/jrEzS5sOMUVsc5EiLSZOhuScZv31LkvLYB+S/89TGcmsbdyLltt+aRvavHxvwh6LzSJ5igu4EaZRW10qvYTX23V7+uolblry5ho8CuwDFn14Eb5m5XgSu9l3kqV84ZcQSKvXXiptdKkDAdR9raUesIxLD2nXrEKmfqV/4Y1u5raxLW1gdLXxuCM2Y1CVBa5NJhRwFA0Os16XDRwLZ18etVgWKIvZbDKYmwc2EzCt+lww4045xl0y0JM6Nq3JpOkmG3MwH66A5/iZJOYtC9QfGMBDXKEX2mCVujTKAQyDrFO7fv+Z7vef3rX+/I1R5g3IbYqIeThDwzOmSUvzP7VV/1Vf7zC6cQfvxGbSUlN9dxQuZcqn+hWFrxFfx18vCa17zGHwPyG0Kzs5FwO2/pzydZNxqybq1xm5lr5TAfJ+pbR9f1dtNxRkFsmk64XYWgU2CIEwTudhlvIKLXQTf8NcW2aTp0q4uydkFbayqnS61mZ2WbVoSmjZBa8auvdRbF2hG9DpSQzSi7kodho+dG2magB3J7bQjOhtVmjoN6Fr9Pr2SsUk5ml4Fa/24xKzrm7pXYtVlfCO5cWBcTA9PhuyGU3JqoEZg+yUk+pIO/UBgUomGZM1ZqpEn8uitkuqoZxZKzXmNQc6nCO77lcku4c4/+8tn3fd/3yYLdysE14Z+OG2kMHCw2rg/yfPzr5KH/+cJvvmXEh/A3sUl2nYEQpoDVPj7zDbL81x8FtTE8LPi7umizjHeX0Mp8LXrvLHNjZRWFc73FQKtqnmS/6r+Jwr0KRF+1/5N8m+7r7ZMsF/9Wv9Zs6I1pw78K3NAjVr3paILISZRbDNFDbCR0Gw86Z2JOFEIpmGutfoTE0C16Qwzb1A8POcTOuBg0rbebvg/k9kQIHl0ZmVUI+AuD/Gk48Fcm61AiTjzKQAZ6JGwIDtIKgxxKSKjhJgiWWkqHV9+tEja0KCFTLwUqUQkDfTzaI5qSuiQwuutGmfUWg5K9CHJAvL+88+3f/u2vfvWrWW0Tgq0jc7S97Hdhr75K+KsyBl9Vv/SlL5X/+visP/4w/OvoK71xY/x87gWg14CScRDsMMR0rL0eCpp/6Jln0IjorpoY61rTtSyqo6vQGgfuysmZI7nbSy3eCZSH4SpERsVJYLdj0VUkHOHZmDAKH+kymmAe+gj/sOEZV6yVQ1/dqDiHf4gZgswRu6vk6tJdD+zakjTXdaBdtgdSc20I3pjBpKyCLDJWQOmrWBkZ6ASFEjoHCwzLZV03nt2YXat14u9IeJkGxImCJhK6stq1+9DrlKhMK2o4k4VNdOuEmkrpg6cyo7sdeiWyrtauaqS6vl/2J6X9NWj/ibcf6YF79bO2VwkjOa00lUqwzl+3kP9+zdd8je9/7Td0Ywh+nNNrFRWtyUBjMs9QBv76GE7y6zBaLqzSKOTsdr+1NZmczmgGDp3Omayy+msZMtKaI30bzjUiaSu9Kz8FLntc9UJI2o5ktyfIOTTeRnhsKiNWEzYS6ngVq+NJ5xGYP8lUk6hqhmFD4NxIGH3ibFGsWm0kzK2OwzZiN8KHGYHHdbpMzcrzAOlrQ/DommFzuxIQCgrIQB0p+FlByBJD7jvSF5tFwl9x9mfVOpeQz5JZ08x3oqpsiHxtRiGvUi7sp3fEyqylw5pGjbp3XU0YemVIsp1AVu5v5r/yla/0vsvHD4YY/g3RQGslzSmgwN9v/MZvdATsIFiGbqfJ8ILpiEpJi4FKTJOMw1/K2BXoZsciH1sKr6PfZnp81eSmvMq1fgD0uoaQtomZJBCOuBzkHXtwlesQ+qo8eXSimtaRebNTQzczPh5DqLnZIZKZH1gxY81A496xcSWG7UjluHcVpaOy6dVt9fVKvWHbdJn6teOm8kHd7n/nc0VtVjvzGnfIhYGCwinwDgj647a+NsMgSlzvKXx4JNFK2KQSssiOvWKS3hZwxUECV5pixlXvCrV1lJ670s07Q997eUdHrDPieyqDYWbXuOT4xsuxQymn7w1WCWTO8WvOGa3ozzkYaG5nunPnjj8+6ffH/vg6TvWumpI2I67Co1k0bgT9zt/7SxT+oy1A7F3csO32fShq+GF8Zf/2+GKaVDLc1s5eV2FgKk8wh5x860qy/39PfqCSKBPXsZU4oUB+dtUkA/A3UYUiHjN1rXEb0dOYFSEAJAFO/2eiry5qAmnTRUxKAnpAZItHK9u5NzFcpEu9umZm19YpHzLWYyLD1Wwkd8sVCK0Ikq1ofiNQR89eHQ9eDHNZ9kpYKynW63EeUFoOVCKfb9PKgR6V2CW8+Z9gQ7uuctB6kcAEVpsdQWKCyFeP2VVfSroKGP4n1m1m7krbCL+ft6dAMPOomBlDF6ypzmVMlQj7H4KdS3z1V38118hnuayO9Tpk50ayKZcnWgZczNf+z1fAx/UzNELJuatMlURRzOzKDYEmlfxRCx9++ctqTRt+HVNs7bvS5LglihDvuDzp++Rg/ctnJGhltYHWjkOPemKOFXTgE+DrIFgvMYSTRZZNA6mcvhtiVZVvfXzmL2H6SxQOIqiHebRFKLtu2Qi8PbesNllNGa2sdt+H+H2gHUv8WJY2G8ba//jqumpzBclKhO7SAlsg+VxkcdqbyTetvLoGM05I7UtBb01N33X9GQoIG5oTa9L94sZEi+frmrCXv4CkObs46u7du56uvNQFl9nrunasErqBJMjLan9M1d+QsretbEOztxC1fmnuu8m+2NHL3x7xLtq8NMRmoJEQoZWGzanv36lnt/CpknhWTCjM5StY6f/T8X8Dvu3yvzWAnrqP5Oauq8qmyT4tTvwdQcLtcOZIk0KanclsyplMqwViF0wZFl13Hjfm3ODtKRDMvNFgpacy80ywv97ATUWDP+4uMjjIfqWS3/lILA7cEMW5hHRNGtryU3B2NUmagGnZUNNQ35TB2RId3Qyk6Gg+aGVoc+N3wBahlIQ+1oNedNOkV4UQkKroa7cXowY1l/DX4a95TcMUQK+TyqiExEMsQswJFyvEenYEzCEqDRoPBSLG/Lykkia1JpNwtlPA8qMM/BWys4TwJGdVoJpbfmUv20d/k2KtPuc5z/GVtDkyBRIovwOy5tFz+DPLae27aymxZqHJsuc5ebdo/QTRVb0zLphCAnyfeZyZpYnDeuiDQWsjNsXN0ZGhxQ+wE7rQyjwajigrgkVZqi9tiXWLVhqiSqNEqN81Sg1kBIVadRdLd+7cAZScBo/oZsQkoJOQ8rwH8qwIr20ZDu+k0uhOseicMl3ThwkAzh+tJl+9tWw58AxRFghNVKbh+LmhdaRMmGuHkP3IPKhNmomQYGU7IRxlIkC84j9fF+FAszWb8qOPjsRCcImUh2xTY1lZzjYhKwWbwgpxYo/x3IyNwsDdY2Lp8F5nPpDKUyD4Woryo3f0/Mhy3ucIwRcklf2Rxl9crETslS+8uFj4yiJlJf4HCjgowlbmwquwM69r09ACzg+IPbOLAMHkz/oIC8gomEyqQjd9CwhILQhMG+S1negrRisjcENkhUq20Ic0oUAlMcd2+r/whS/kBxvAgO9GQrd0ICo6/FVDILEIq8VnD778dfgrwvh2r5CHrpJ1dO5qcZbWWY0mXaWA6aHbX77ngfwT81UsDVL1gr/A93nPe56N0ESYI8hOjokWAAFH/lfp1t4JFDyK6YtZZXNh0CEOqSGQRBEgIEQYGM6+AjvEm74btY3VuAYiUFGjIHaZ68sPnWwQzj/CzDIR0mwkRC99EQo5uiTKlTfoVjoM+ES4z2mk6hasiI1TiEbrix7hnGAj7OmE5NUKnMG9+nSmCT9LVBlu5Vp3zBfSuTq2bDSW4rnEs4IZsdzo46lX2mSIJNMcAUPsx3aaRx55xDMlk9vV1Ke5q9FpYkQCLXOOsle95S1vsReyl+2r2g+QftohGDq0//M7d/OFaA7vmjw+HfurmduVCK851GoUAXBQq33Y9JhO8efW3LgWdmvflRZz9nzJDh2sZ8kjWjCJDGteIZwEbLZQySYIxhYEd9JKyVXnVTi6poLPFXMLw9oTK558rXxZAE46h60bCXM75kQkmUow18tAHz9IgT1C9lgwvR5SYter/CZm4IvZQXCCZWNxWvxmZMycuRhimjZE0YWNQBBsI7R0reTcaw0DBTzNnb6p5Bb66GKfVmnWBAZUFSFFXWwJ34zols5gxSpwJcpVR/NuULfKdFEj9hRjsZ2edcSPOGRdTe0ueonqnMYukvmq7IdY8glxVXAyylLiAYSMGFCqTBlBxUCSlWpYp2AwHUlGWCwqUwyBE51FF9zPehZNbJ9SVH92qrMC+1CuaGVxDn5uTCUAikHKbLFwMqAwI0wgyoyrwYbfKEa3mh577DGHihBWPYWhNrEIAi+Gf9azSGMjgbJg2xI2m7dVTGZ23Ybr0w7BGclsP951fm//Ef28Zv5q4ilEE4notqbNVZwJAisBjosb0fOd3/mdnXXoRUKBmJARuBGCsxkyVcCXPv6WjbkhUJhaGyNK/OFUguOQTuvEwUZyt7VOE5XEAcyV/z766KPiRqzXarhh2yUMpJIVBEbELxbt5PAXCqPppjWdd4U8RDXN11idyTnTtXpL2tSbMsmR3XfFryt6oFHEnoNdSZmVPO5tbeexxh3v1aQvQhgYWoImpAOFJKThdBlCAAAaJ0UAAo90RKQJCZE2YmMOJUW1EyoJAWZoJV2QJYAMKDkyV8JhVCm8ytFB0LqlMDD1d/IIMZxx1YA55jPclgMfrUS0ZdVpDwQ3kKUhxZmtPbHjn3yYN6JXfTDXpJJM/6ON18537twR9gmnbYcD0m35k9KexGSPiVTythzBRRQmDQrr60laGjRD81J/TUVOxv8UluRaEc7ETQ13sZcECjAQ+oNgWOwK1l3poMuq9gOk7wcEiy3B9MQTT/A1WkSKyz5LaONtzoKYQ77AM7HO7+JGJPG7kOJ0i0GIzKbdVB0SpR4DNcyEUtAUZzW5uq2G2I0cfZVN5dxOE21FD9QQBBIB57/2HhE2DMmfjhtCq4Xkmltoy4cWvy8fHKT4CZzsZsLIWLP9bOQ8dLe5hZd4ngcQSpVWkcUMkpwJmHoEt1zRQC4isHXoQFb4SY6KKBJ4z1gz10ZU2dXQSgz4xTDPQ1J7PwXMjoIh5l1lyCzSYA1OP2G3hQTButQrgnAM9gY5IDwiyozL2pxgyl3Qu8LVADJwmQLpf6HQ5e6u0qCevr2ztUysNQO5ouGvXBseQWf5QWcjnIPBvg58nfLp24jkVEaB1FZJZ0V9NQiVaGFPuAc+j32C3wkGB1qnhNsVpD6e5MygIXiDfyCm5Bryst16MTsINVDYMlcGKOA4zZ38OoVwkGg4z6mmg8IO5fiK5FzNyeTwjzWOgLyNaAZH27HoARL3A4KZZ57Mgan17Oxqp5UV2u2ltE0hV2Ljmohdj1Q/qGRWrMNv/uZvFrLOhXm/iCFNIB5xMTm1DtHtpsvcimYCY1ZZ2VVvajBEIwQiG2UBzsKES/lvhvAGItun74YQl0lraQlc/8+e7zGkVFYdV+DPXtI2fR+625m4cWCOUj/WmYsw1KoGSX4RDpvwK03QEavzoXjzLOIPMVuQejWz+ir6qklCRNea6k6BwhiOSLis9mYQz/Td6KBegTLiE1u9zOwY1bh4tJJvdditwSLJlkmHToBY5riR3K20Q5cUIJMcHbt11Qp3dAdhKe+q3q1iEQFHK/GbvumbPJ9pktk4n6Eq5GIjURfaL8Wgulf26pOjpBo+eHdKACsNQbKHBo9uHl8oQzjT+MQkkt0sqJTnmt+A2I9FaUJ/v37SkTIGxWzzcBhFWwBNPTrIS3yh79WIHVFSQqxeOIG7zMxwMMd+4PnJoDIYU3BoP9tr0dNdeT8geKKNRxQ+srkFpmbIqhAN2YlTdO612TzxeKhkMhAyBYmMLZ1n5ZvyC2GK7fguV4g0BIHrbZWEI4o6RMq7rV5NoRDz7jU2wU09sOsUzIqSdtnVkyYcE47Y7T412YtTPNnGxZmP6rx/8yKRD8NfzNjIGQ9P94eOYOmqMzeana7qGQgX8NjVTDqXcos9CQSvvY7QpAkzyOuxVAIFa7iOEEVixYciCk+lCWqisY1udeF/qGdosHJkxLUpUWoAYvVqhiH5hqbGnTt3qFQTq42lC0vlesO/IXQfaWhKCo9kWmtpOwrUt9t6YfZ8JpXhW66QhEpXQeGMQlTS1OSNuqO7HU6EyOdbkd8rOBmrvm0kUBICimTgyFJCJoxXCRjAq5invLXsJaEkV86RDhSTeym01d3al1lL851CjN9GWhDvtkERTDP6MNwGYj/e3aBmAutiAp+MEgRvejjiCIsK7TMXe6a5bBkcGpocEdnMRajhdBHz4he/mITXve51tjuRalYOCalex0KHMtUQO8E0lZqK0bUm/kIwenONWQxJLjyICW4ZDdTAZghDx99OI4YiNkLcpiQGNgrBl7/85cJ3jlyGAUHsbveHria/rY5Vo/AAA2U3VhrC6Z61Z+eWFiHiuYqxdn2TIhuCNYTAGjLlTfUlmSjXhqsyZVzNRQCNJ2JGXBWeypWIQUdCRtu9vRpIKNoqcNJEnBOlRlGzit3QCTQEQkEoeGbEuqtko+vcGsIylLs88cQTcM3DuzRTkdOQg7mB0AynBkJf14pWRAKTCX/lm4Kfn8nRZKacR8NfD3CwuNOzTBt9GogoQqxf4CDadcS8rmgMUi5pNcmwHkbbn0p+LZOk4UkrV2LpbCw446SC8F7ENVCmPfDrU4JgsdKRuc1KxOQCdiKy37Spz8hmCM3F0ofZskhAO1+3KuLJiRzHffhJIAfR7Uroq3jYp4ndXpMTOrPC48lPJfU5PX0msNRXCogn797x7+isaugh4qMVgSobQux6kqKSp11PTMJa5tWIuUWvDERk1xiILR7SFF517Ah2ha+Pf6X5Y46+YwXO0SRDxu3iVatb9TlkNJnu9b0l12zJkzREVKQzXGHJSYK8CZBb3b1717OFQFJwTpgxZGYko3IaaNAFOkBhQEOgPEtfPJri1NFw0a65iEqIrhh4kkBsqYptL53adUzg8I/86RjhaqYUthgotomH6bVL6JiqrvjXYM72uqxsaJVx6sUPloyFybGarKZdUZhValX0dWUR+XmmSvX2RcGv2PDYQibYdf4Af81gjzKjVT4hNg27NRA2NbuJfyOaPho2tE8glCRoTSt9E+WWNFcutc1MZUSDPvDrtSGYPQUiMziCo9lgI7LCWTtTUgytC2Njqv0NplgJHK04NpIt4smJjVIXE7npu3srC37Ri14kgCxRR4TGFVI0JEcZsUf02ZV5vIbYJpLVcbplvhXu8FeRCKDXB7q9Aov1mpJ5ofHl/wzNOVzk/NcRhBxwAnevHK2jSWa2P0FhhCbPziCMZN0n6PeKulWVFBZLkhcxRn/HOz3q2rO96mGX70M8ZqZz1o0fdGRp8yJQTYpzIRI4tmME6OAcTOgWt00oIRGH/KB1deCG2aAxuB4StelyaKAbqadDanRNZgqw2q1osRhhZWGDTX3r94gCGxNmCO61kD2bylXLUuXXDmSltJKkermuyhwZZbdJX7opzZrwVlaxSc60pklrDLvSbkPNvdFtoyVjhHgm2Y48EloSQhmM2uVMZPyM5wv0IePNupXwtre9zcQTKHk0YQ5MydSXi/VVH0FI0jbKJB8bHUw8sEZDHAemZp1KRdX0OnniR8IQqWSmjdh825DsBF4UgAb462nX41L8MUzflVibUk/yyxUw1/mDw1/468OjlW3tPnTRxgMUo5J6+Yg8kT/t/zI+DidWPVExTN/bTAw+Ci3PN1IeKRInl22BZu9woDOn8cAm2KrhExthU+OXVCaFHGdWUNjqhRS8MWF2T1cYolG65k/XqSRtYnV1dQw3GIFXVHX0HCL13FYoPNHFY4KkJXnPIBkzRxOu9iwr8nkb0fmGCfIkJyUaNuM2ImIqr0jQzaQLZvxWupl1ygfxnV2YUOGRnBnCQOso6PX2ioM+rWzXhuC0yft2PG82fPDBeDDheRkWs3l3Mey1Aad1FQqDYwjuLyc4Qsprhmhh6Evg0BtR2MIdPCbj+c9/vkXl0VKlQwlBEH9+x3xTE5Aog6Yene0f/uyvN0Ve+MjR7AobVY/ckkNgRejzp13E/8Qho4fF6hso3x6Ro+8Y6IH9677u66jx+OOPi9pBmXsurSPy738T21lEeZs08PVY4NU59wJTgSe3EoS2GTyz/etCTzUKWitQEFdwATPYtTfzCcfaKVXi4dh6dT1iJpmYKzNK/JTMt/GYsm6TqTL+9fbIQE+9yUB7x0oT8rWiOcR+ZsnwMJ3LiIu3seiIMmMXZrCrWIA9/Hnw8pWY0iEhp5GT5NHhiOS9TbpbHWbQ3izpsaHCX4d+XO2l3ArBDdR1IyrDN5UP6vbaEJz2TS0X+NDKYvAC1IOeNQD4pCTwNHuOODrXSF4UwN3EWy36WjAIws1ZbGb3kIMwYEsrcKMvZlslTUjoXSrFaKLsnY9Dko/XNyKZ2MQcvPMNjQ+efC/l2VYgqr8c8783/CPSsBWdOcHBHOT1OsK7YK/C0zlXNNwhUVTKFU6f7QfeBHruVullseuhXre83iSymhNMKP/4oki+Y58z0dx+586dfqwhAwiCm5cxSl9sjiYlznwiNqxeSVm5s74yKZXYFL3u6SgMlFFirlfDqWz0hERrwlNNbPfzatx16G5TnhpcCn+Fq+i1kLnaYuQfz0yIND+kbYavpll9iQLoxbO1bL58QxkyzrgjmT6rAw+Ntdbbhsm0cdpTDQfr7ccWHTnGBfc0N66cw1XZPAcn6oRxVx1ulr42BI/r6ZFPwY3koneUvODZ2abHSBNspzqurujHafEA7r7t5UT/i4Q1Y1vTpHvTeVzOymYz8B7MuXAq+fpCvlOsXHe+jwzK9hRDWNvydwm4YxmhrH6Gi6fbI9JiEKmONW3mb3jDG3iD2roULrniuP5arSJW8558HP5KEOactMlKN2KPizqi6n1uGrUR4sQKZII92+YkC/bc4y2CSAMcPfHkLkpiq6/8Dv4qopQE+OvBq7zMAhaBeSOH3NMtZIpq69zaxpw/174poKYpy11zi1Dusw9Hhyyd0fnNYrl7WaAwDLW98a1it8OWA4d/Q2QIMyvSJshoUhBximfeNlOTnFaPv74nuMKBxlvf+lar27Oms0f+N4l+WuIduCdyT0Uepo3YLAv+PpqeESlg0ON2bcx8um+vDcEZw3KaBaDyCMFtR/Igo0aAqpHK2YKOaI8TyPJF02CShLVVhBAWmgQGsUQRUla7V1qakBOhIzWkSOJJX0Gm3m/JHP9ZfutM7JV2rUrSbD9iV1Im/5UFG1TNBFYquVUw7xWe5pcb9j8KHfjr3bG8FUysgcIu3Y/ob2gu7QndJ5mPPPIIIGa+lyHJoUMS3B5SZq+GD7aS4TSfWXZrKr1ht84VEOwhzDLz0KBe7iNUWIcfZ0e99iHf+VuuAsP6dMLDvbCGc8RqrmiCjrh3nMDPVrv02RBG1IU/dTdW0hJiLuwWzkzMLDjTlBWuI+o+EJTsnIFWVEpV+zTXqZcucI6vQuGmndspsGUrZeEfLuWfvSnkqjaxbhml8IzHLzJJ5nxjMRxiEoUnzrXvaTQlHUQ4j3LsyTooAXmEAdCQCRmLz1XaRbwNsqDcpgZNIAw19KLbaaM/Hb2uDcF8TY9Ln19sJnytmN2eCDz8wiAeefPlf5/O4Ph3Va+XqyYxIUbRrhz3Hd/xHXJh/6OE4NDKZaJhV0I1dMAwE0wT9Qb1+OlRxapDKF5qAaNDQk6oNyiFbfsve9nLvH/zRMxwoJ8+6ZBWatLqyCiww+OVd0R+fOzwBFIkx1UvY43bDwkxdIch8l9HnGi9LCHroVlImeRUc0jUrarPpWGBMKC/1eVJi2ccf1lsKhlrrqEqHwI+1hVXYAVAeyeJQd6kC8f6tZUiazZ3XKTgH4J85Yh/xLZsy7eGpkwqbWbx637Z7x1/D1ONsw6zaW/gT4Ht2mzeH/caiw68B22DRTS3iIew0m7toY1/fLcDvGwVQIrOjr/kAWDuuLZcpKy2GM5YcMCM6MtkcJnhmtTEz1F6rfQq5J50WokBf4tckus3eFBCpaEtdmLNCFDueMqJikdJGTGL5M49Dd9ziPvMcBDajusxfmQz/7pFSFqBaWmg9aCej2S1eY1rEDibD/JbJwhT1XBWmn3MMzg2YaHS0rJ+9G0pqkfXN4I0t0ZPQle3Qs2erBdCJTVEhucUW2Ljum1hk6NGF8JH1NCI4SyIWYHweCvXBnZSYFeGY1vVGDo9R6Du6awGj9xc6Nt4bBI+/u38Ieb8RqUhUq9WQhCKocU9QKGGTFyBTTgVPGw0Cgnpk6hVYJy39mpqWMGHGeuWRY4XwYqlBYLtr9JS5wwAEXCA4Kxjr2MxS9EShZuwgJ89Wzg11rEpwJnYueYlt4ccIpxstxj0xazUl4YUQ4sNfRFA325qUZQGzoh1OST/puqNQhRgcignVqldGMMp0cJ7olfMKLzEafJfQegJzEtsy1bfFD6kT1bX2lhoo4hGt6aJw8s6W19adRlpKz2VVyQoBl4U8hkIPaz0zoUDYiGRsZpsuuarehsM7DYd92cKrmjOiRC8K51fuFX8cYcHYTbbZv31BlGoUlN4p6PYxdw62ZXDdyZPNPgraBDTLmdePWUQ0hB1QSPMdAC3K8eIHG0/EGSY08d/NW/1tp5HH0IM6pqQTXA0l5oIaUuXRAhia9v3BiwVynTDVuQd0kdr8slp5ccpHXNO4lfw/XxeYG0U2Jg2reNApknKrLTHHnsMErV1sY5Km77PpFuoASwEm1ROeHj8spkFH7mao2TBz372sx3IwCCO1eoBNkCcuTjNJ4Ywj2LGKAraajehJgWhNVoTntHH7WnDndCLJnSAPt5SSDssojFZuFJJDFsdCCBluTmfKQPwVqYQnQDbOzoe9RfGXxZyFDWiTjF0NYTMytor54TKFCPfIYO/oOZnb3YUJypWgeRDxiYeUgOP5W+BAGjPLgz01yTWADhh9BvvcmOrlLXmoj1QVgKneMGDgKniKU9tqX7P2QVzRAka2E0g95lCj0sWm7TC1CYHD2Jud/2SPvZ8xaDpA+9o5XkkfQoUaNVaWoXUnQIFEE5CFAbSxGRLfn0KQzEC1eM8ro+4SWfX+K1VnpGUefSTAtuiuet43KdhcnKOFEaQ9fGD98L2g4THs1r0DKNBsFNLOaZgY7WnJdiBcD7LjZxjHVqQij3JFJt65zyOBbRyzlX8vNdjHqdIuMjB/uZvRGnzLgYMITZEi2IKBIyDL6mlSNNkxDjJnOnbK/8GK41IE08AVDKoYjVRDPKmBp84upGUOPeTB3han0d1zKPwVVTCzKUstRFawmhDcws5uqNPdvih0Un23ENzThYG0jUE/WV+TLbpCgDQbO9BI5x3U1KCT0O7jnk8JPk+198YBNObhXyN4B3QYNsxB/bhb/3Wb52dp5k4PiXkCBRxw1/+yrClxV/whTeJzUF4mt0j/jIWORisDXPgOd3+byZe8YpXpE+rBQNph+TUhFOROFjw7HrJS14i63SIplcmY8PA3kNy1FOYSqM2uyS/8NfbD2mItZpzMJBJ2iFRY7u15EWTTLyPMewNutSa4Sl/SM5DXc97nhusLkmuVSc2XAWJUHHqZ6JtS85kpD9cASstTn6W600o8vMJ/oG/oF+RU9OBBDNlvhBFNbFJpglc6HUcV1fZBJ0w7nUni9We02kLpFzp1m4NnjhHoYMDmVe96lW+gLRvgWObygTe/9/e3f7aclRnAoexEcYokYZJxgwenHtsMUQQgSFKPhAN2NeQsS9BiLfv/G1ICJsPgGSQUcDwCRGS8chDkDJ2ZHviwcFkmBBPsEFx4ObX9ey9Tp3eL9773PN6XaVz+66uXrVq1aqqp1avru5N2zRnk6ryJTxSdDN6g7/yTQT5vJ8TH4dlxkwWVaeZqtbFVlmTlK8Gf00N44G3ZA2mhibDIr9ZQzdPqrR9X5OeEv82yNi3yljH0XxgIMBnDqANRMuvNcqGB/mGbJlvtYoICQAZxHxDgxjWyGFrRjSSSA4bOenjVTly8GAwFOigiEQOmhqmrpXQ0LRuRxnMihg9EVWEfMlgUpaTxe01t0GeJ+w9/zQS2zzEHAmzo6vFr0VBhMQfBCgLFyIkzZ9JyCkGCnPqrfxcPy/dUkZUxNrQ89NfSqV9/k1DQ1XjCg4aIfrF8sMgxhvv2OzSy1Zcy6TMQKG7DeucTmeWGGHLyNlipYQX1evGhQLFqd8jOTbPwJOJSD5aKv7TJgwhyQjn20Jhg19YBhjZv+WenUcih6oS8NIQnFRyWkfFmchxraplxmqdlhJlbJtTCkpmjYlmwjKaybtWzr6ZqmPGqh2tOkm95nXyoY3GApysK2oXnTBlzBFb2aw0VtCbGYIz+PSlztMH+vvzn/+8+8F81Zevt6lT0xkxouIIvYiZKb3LZIjAKZlwx4I2DecWcdvShRlPNRlwGg3WRl8Z5jqR6dmXbkuE19VUTWyIkkyCHgVzprRnO9pijXWVbjTsiSqySpBZCmvR448/LjLFKeOAGD34XXXEJq0Wr5xchSw0kawH9DHmKBkJEYWu0yp7MxFaxxSmExuaYDDXQxh9pENtV3LJwNPXfCKwi0cyIWe2nZ3uYh/1GldGYO54DACWd4QCKe50RjiNtiV/dlr5J0hQw8A2utwrSDSksHHiHs4eHsjoFCL7yiDaHX0gmEHSwEzSasuqYtiSGR6nqtMdnnkC4lwy/d0pShyOk4JgktNrNbvlxJ5aRG36xC8W99f1iTxYj69cuRIU1mqjIhpehOOJecHBo9giDTNMEdyT3CcCX/NE7IldMPNiNrWfkPSrYc3QulZYTY5hJLGvYAIM4pZukiAffzqpeALclAGg+oAOENngMPiAoFFIsgUTv4Iq0mFxfhXk83rS5b4GCru3jUx6hsCMUGPlJH/1qBZ7Fd0uWQAcgQKzYEvBTACnBlNN6ZmQDCPPoLx5IQTBqeHRrDY2pY4BMbPqLuxpmsbnFcQEIro1EQk3nghXTTk3pHpZuEBoAgRj1hydy1yI4xlHKZ2VsUQI+Y46yxhIL0S4WnLJVfzHq0vZYyeV0sTA9rzB9KlWw0djhktx0DaTWKUMe059hU3UqDmKS9trnzGoizcN9AlMQYivO2xCMM63izrG1dg5BWPe8qUQkhbpemxaasqLwJjvhoq2m1/HqPGUipyYKjUEq7NbJy4ePQFN77wBMnsSsot+CwSnqYqzLAuSbDTDSgU5wroT9HjSvR2Co4ajVLYjMEtl5qf7VoPGGBUKyL0YOIbCeLLVCbrxsDC71UXDfb1IGq1KsvGaHiW8r6sqDaGIZAXKd409A7GDykAptgyjtHoT/mK2pHkMyP+1sLNqv56TkOLYEHWsKm4mgqnZk8/FkmaXuwGjy5Kppx588EEQqddggXnIzvDXzXggOHZmiu39tclWWW6VVTueDE6EU5kFuyHSHVVjdN4k+WTzU2mGAclFsIbnK2bf5z73OVE1KjHUtWvXzCZzs8Ba8Si/SSsM4SEhwrkXbu94nTpF81kG2LlFM3OJVe8mUfvmq04q+yue6srmcujmiI0yYlAWY3dF1unqvn0rPT1+EPwaa93aupeDCUoe3o/LDHMRTpu53sgEkvZz+kwPTwBAXhzPMLQOzQ34JFO5HFHuLZzyUJ9//v/AR4bGrAoEh5RnrTNSY8ZEdHDs1ZgkNlTCo4hkfOgS89ag0T2cU/gL31VBQ6slsDO3Dw4OEJIxSmCE5JiKakVN7+r9AmVbLXIVFlg8VGHfpc9XC4BwGZaLULCS6RY2IDwNQWScRXnor72CWfxf+zGsDUzqUsZfGaHXjZwoGYH0j8BUkUsX8Bi1KSn1+ue0GqU5OovbxbCmmd7k37ESONYFXDAen/ivp3BW2YKAKs4UMUvVkrqcFs+qcVxSL/kpVR20tsjaTDI35a9WdyM51RAKGyQ5DSQZ3vxf48cscBTAsVZxRKxSZqjhmtZtrz1i05y0SBRIdzhK8VfML7icp2Q6K75FmE2NnJKwtrqwqaWMjM0sU8olxTVKipIhihmbHAUd+cJGAlrCEIVT6iIc94bgdKTR2+ymRRMqlSE2NYnVmMx6690tOMJbgcJcQp3NmlIKNuHITavCdUBmsxqDGitQTGRApCl2jyYKRxpRa5WpfIQnEu5QwLHZ6x0qYo0SpYiiLSUlcGwyB39Lz7WSk4nHtkhaaAUhep2r68gL+8IXvgCCjVGtyOBrA0X4QuCb2gRk8i+soZSsDCZi2Y1/55c4qMrXo3ZqxICgc0775mtjkkw1EugULYX58h5741g4PXTKPaY7XwbRWPbhfwmDevZicd29pduNk3pjVTK3M6fS2BydsoiM2Fw94yOFRQJNPWZJ9NxDqoODAxNKqM3R483MSoqV5rsrCcphLsvrBT1ievJv7Jv0+MsqaC6QGWmZAqHXmjEjP4MWW3iUivVSnLQyJoaycBDJVfPX5HU0GXHikZzu3qLT5ryhQITGaCRLlVk3qYsBs1kBhRlCHyuFWZzIqssdjgQ8+n2TEPk8R2UlJk69QJNMNk3f4CF/i4S6FOWpJAHi5CdzlZ6V2tLedik3pAbH9HPRRp4bMc+IvFZr/cjAIhCnVhhC6NbwqmRO8FPME2ET+CsIQ1urgiI1OiPNMTkz9ZyWTdBSjdR5TZfnXCtYIDPNUyCuLodOiJyhhMstrhZUo0sU2NZ9a96mlpXliwhn5K+Wkp/M8DtN2mRSbMWASKlNzKvVnXgOi6mdlwqCWQkKs5vpAysNMPOLrUzJsM1ssosyvGzLnvFJMkcYQbInKERl37HJG/SUk2FJn1QUQ6nFqQhbsAKm08oqq0MxUJX/AVVpKIdDAz0UIUopk8tRwhkjy/f8zS0jd0o+aZKCu7TlbHj2hmDNoFlwhBUkTU1r12occ+B3NWVNEvfRusciySt0V86IubRWQjJJcFehcnXxf91gWlGNJH3ANxQVtcpVFXgKdGYy61LNB0Tx9Jmhc1WpEDkW/yoR+cAX57/8y6tGs3vkRx55RCCbdyCTxZSKAbPe9G2PfDkS2hE//9eTa5vPshnDzCHBVSkK9OolU8FcQuRq7FOcuXp5j/pXW9JMszoBRzElE17UiHmNDcEuMQpRiNzcbGosIc2Wh8NgLWfqmnHKTP7aIsmkZ4jiJKToLQVP41KU4e2CYDa0v8joYjExNxAMm6xYPFaTi1WPoQCz+wQHoHSvZlaS4BbTva9HKWmyntIdsUDmQtWCITxyoITfwVGWB2MGuWlWkPL610ZM8Q08IiceaweC0y7Fi8DglL8izCLqIkIFfEG5NeZ4TSs9T5bYG4L76tPgoHCf39NszSgZuDlajvQNHDFPDALF0W4VGajNqwV29ELQ6S0SgA8LGivTcvbKK7qT1yMiYW208GLLHces+OpplJGvFRJC7Y6tiiPsrvbMa3mqAPBFW+cNYhDgWXNefuP/ErKsyHKixilSIV5cZRuD6bqwAGb+rwWc53vfffeZIRrIVhGiVBRDRHNEKV8E41uxpBgwpRxPLvXItb7vTq6uQ0mao9UxhTEgQVvrnEwjAZ9T7pijKWqkHZbcjSoj9+wyJVW4czKl+RDszMLJ7DmLTkdkxGKr/PMlMiQEx/hABiFQA3bCBdDKY15+A7vlxZN99eSxuvnw/NNOlYxejjDXQS0qZTR4CkzN3/jaCU3oIKhtbJvLBrkiEPyBBx4AuBwX1vbQlbOFjZ4mgq11zE5hR5vP4IBFhUDSGBkbkOFHUwAyEIWTTOArAiNRct92nR7/3hBsSGlk5rOxqM2sWRN+raLYkl9DEKEzbB5id4SZI7Ejg4KRtUKWEvw/zQEqsKMV0mKO0D1WWk94WZ/wLfqUMlULZikTCTFVsPRAw5PM5G8XXjKpxB1wd/zoo49qWvxfZTHAaEQj7SpfPCRJweSi1RjaPdRnP/tZ+MtbYaiS72p0bgKPrBwL0UsHGTa5N8xjxip+ckQ6K0etQ5wbyvB28w0QLo8GWvzcKol7otu42tholpRcLmIta646Qgowwb1i26z3MqvvZmUTH7MMGA9GRdg2Mc/Knt5pFDZ97I4w7yAUX1hbAJyvssBBv9jt6pZ2bdfNfPTY2ez2NWfYRw4wNYw9L4WAUNj9Cl8bbsaHVbXhTYeDgwPRJPogFBFw4D7zz771rW/hwcAjIQSPPs2yQSCA1tecYuOcYkq5yTZljAQJPywGykaIe26IIXK1Xf+zvLo3BPejB/hy9CTPQDYpjV8H5GpP6BgJIOonuEkUE4OqX/1q/e2Pq0ZzGxOJeLoPve4D/7qQQXkZ5BjiNGHu+MKbVJJPq5liPTS3WhZqFxtCQZekLZJpInEELM5eoIK/Blzxi8oq3lzgxebfiC0GBE00locFf/m/4g92QRhAGog5/NGB3fqCRecqI7DqSy/9f39+nrFddWVSPkKK/8aIsgbi7FCYlQpYNUqLNNZUhHR5+GZm8nqYKFc3tTEGcbUnZvZxqRLfysznLcIpEz7yXd0kH0y7ZPLzCoEdutd8U6nTy6eq1qWB7CMZaZxWK4q7B63jM3JXjV74aGYFInfXh2Q24ZDyP3ivBJq2CdDDRKZDw1ZPR0Aw50CvKWLAQwPxEBEGjhQIhrzmUWY3TdLXjoTLJ1MIG84qQm0CJffWekQDdQ0QuKe9m8MBt17S32KsUSDYwKDe7i06bc69ITgKZRjpIYvPO9/5n90XWJ3W6lqjM72eEVBH6xUb6SfjQN/4vuqzzz63Vg6jy1dvc8AJ4PqZ8FPox5Szsll4GTdfGYZWa4VUpvJSTikmOXWUk/yWt3hcELYw1NUQJbAIUw7+Ql7+hb04FpXIbFVMN85tj93EnhZVwRDEUp6fxSy+xOYO0aLCSprpklT8TeChzhgYx9XiMVINNcPXfj7Z6bLWxImr5JwoQewZobDmR/O0C20auycDc+6vGcF67JjbNUTxb2lvma54kuNYydzWIzDC1jfwoadYPn1RpXqCAjQRjDI+Mxj6q+dIp0WUpxUfk92MN+2CcQcHB1evXkV4gXNfCCZWk5Ui1qxEQwluBECEyMDRNDfZ2dD41F8SI6grw56r4So4lm8qgZdvfvObnmPzms0XCGuOiy8R5c0Aywb7A18TBHAb7YUSpBECowk0MBjfw0COuXsjARZrzDlaflb1cSA4U50gQ5Dzf8cd/9HjNZ3HHBpsOErhQeiSVDkj0lXAV9IBymJjmltu8etzP6t1TybOCDRcMqNkoh3tiEsXumliZR2QlQB+ebzA9MridJR6ZZSt5FLoIpxWG/vMokMQiDNH/EaMQWBt9+hA8iyecSK58Uy1iEJE8+STI7naGCYQeetbb7dZk7/ApPY/eJTMOK66pGBplUZFSI4uYStpTtlQANrKr5vwpAqES70OvZCToG8IhaN/NEzPpscpjOgtUM2ptoTfxJZmDQlzhLvEpJGmLOhB67vMeTllxghJWQwRSzcTeyZ/y6lS7A+PMsJTNf5SpidCRx90KYPeVEWKlFhTgMLaol46S2W3GCrNIQ0R2qAFT8CRB2r+Qi60+3fjh6/KUSVKqyM5MlVKrHaR0OtWymCGvK7iR2MGfMCXQwo9QSfaVWqnXWg81Ha0YgkW86sUMYlsJeJQ89ZxumSaW8+0BRxze8mhMAi2NIJdAolKSodi0wQTgT+UKZmbpE32PPv8vSG4n8CxCNDhd7hxuHLligboBgnBTJi3NClXselyS5k3vsSD7rjj7b4B6l1zBcGxqwwaaREV4Wj5rmbwoUmjyZe+9CVOqDd/3Lzrb71SOuCpshF1g8dIK5mBPKPZU1r3O4YR+cu5gQvU0nlaOfqkCTnFaZa6veJePfTQQ56KCES4ZFC6hIgdQkzimpFzjITQMYUcy5Jl3/OWOF/sEGOWnJQ6hePxUVgTqBebUNgkN4cNM9NJJlOkjUur7q175JOjJIGcNQlYyFeL6mSminDGVmoPIoCPfauEX6qAApAolW6SkIZTgCNCE3UpEhxx3FLKpWoRc1lUoKqx5GhM5tJqp2c8KKvhjsJlhq5WH7TXeXlU7tw5NIYx5RUnhxp0I5P9U0pBCjv25qq6tF1x+ni4R6x7ZY9/SBY9MDd5FQoSSxohBEqYzV/OL304vKAT5sonPxXpCHs2BD/NMjI9bRMUEiOGP5w5WKx2dlMEautZq4h2AV+xIEEqNiFKvaUk+nzT3hBc6mqJLnG74B5B0JOB5Ij1GDpsoYVpavGvEmFwVESyCLsH0TFGzpve5Ku+P8nSpyCeMlkkpyw6IwwPBfAbH2hdohviC5MMiHEWFq9qcrwcVVODWHNMvcaZ9dldUvo7CrdxM3W5Ruj36b+VtuDUam034t/73vfcf/99iT9gdkmaSreCjjlN81v2kUOuGnkGLjXEH3nBMSNNelFFHyl/YifHR+GooIGsah6aVAYYSPLKgMmZW8jq9L301eSMgbSdKFOdD6Xv5FioeBKm6MwyNGFPloRuxlLr0D2qpaqGuP/VC9X1RfSC1IsZ3rl/DwRruBspxXu2LTTIg00QCgBplwbqfa1T3Wop1UWNNotfZVtDl5IiBsahASlHk8NjNlGJicAZDWXCRwx0w0M4w1anlAFdUopJcZodCvJJORbgEgRbJIAvUY7kY6M/flipI8jXO4Yx4ZQhPGI1LZrIZxytI9N85wXHf8dJmqpd0nGEuCX1kEApSam0CHFBkr7Z5qhu0rKaIRRw++2LHzT0fX6L0pX2eZQUTDevFWIozzCR1SR3H6zvK46+b/83f/O/lM0jrHRA9S4FXGpO5XQ7U/iit0xaKy2fmi9JH6sCLzs66BsMa/U5XmYayF/g9vI3eZ06WxMMawLbdJ30rPiDJisitcxFQIBKRo+7Km8eP/DA1Xvvfb8x6oag7IN/2d75wtZfIjNskEskmg2h8Asv2Ib5qoa7euYpi8diCdlee40obGmFfjRdHSXzCjokcZS2i1p7lTF79FSFm253xOzM+C6Z/+TrOwSrGlQqjVYYsuXRqbRW/qZMlicHHABHmitewlMkAtOPKlWXGZToHAx1K+MInjKiVmuJwORbIQRJtMi9VCaFFsFx9ab5GX6YVVe1h+amxBrKAkdqs4OBrXZJLQTCTXerdGMucKZF2mXOlmEjP22JWAUlDHQTG+RnEI6WMLsUxTCoUYpkyK7JjnRY1VapCNeDZMahRgfTSchVFlOchhxnwB1oJi09m+ZfhONxIHgy6vK+gBndIGoJBBG7FMG0a+/g4EA/Ab50xvZ2Fk8IPcr6HAEQzLn+8Y9faKvuhFzr5PBrFncos6t8aq9s+GFNYXszOb2ue3T5jPNGTo1OdzccNHgnaMXpMGc6gXktbaEho1Ur0Bl8BgTAZT23abT9kz/5kN/0crUTMk2Y5Bijm5aQSDbaOBFclccee4xTw4kQEozlSJCwhbOXf5r0rigca9AkeuqptVphO14TSn7Ezk77umKl/hitbsRukVZy6jQ5jhEerbbohnNt6gViqNO1BIZqC4acFlG1F4EB7dh3SiRXKVelZIZAh3+1bOOdH6rs/EI7d5UcMLr2ap+J02k1EN1LJsSl/mpf9lxoQcYjs31HJaoNRYBO89+qq5FWJEsxFI45tshM8bAVswWZL2C9JeSFF36cm5EtQnIJNlWXE2sBpA/4tjZaeykDhauK15S2C4Na3JoJPjz++OMgmPNusYWSZZNm20PzVu0hoi3Xw75FS9dHP/pRq5dVXfPDQE4IR8yOGc1rdcNsgPJ/7UTOD2px6CjTNmBMOiheikXsWjknnXnY/O2SSzdsPU3VpBTvL20XOLuagkTN8ldzZgxsjifFM4FnDNtPq8tCbNff1VRRWiHklALb67Kch7MqxS8nmX1ZOf1pz1YtNaEK8qJYijR5h2NpVU6xhVBWqhpTPJdKz2guc9bYYkYQklJVNpmO1fBIKLYUJzNlSwiieM6dOCYEp6nVJCYAwXx+GAQsnAK+QAliUyPLLhiUkuQoK+UWwyAgU37WicayiP1HZm/KxnZYFfQBwbxUHUCT0gd9yHQDlJs7T//EH+yYEYIQveIOu/c5OlAWPZ1BEG0dNZC2VBJ0s5lG/EHw1+aHd77zTmaLBAwIzBI1kxl6pjVO9aqdD571wD2EtrtVVKpVfaREEzkf0Ec4zulk1jqnMdSqOjPOVYZNOf1sxENOGRadlHx0mDGER34Rm+SvB7IbRwAAG8lJREFU5leRIvrBUPyqCx220lOmnGQWc08oyEphaIwTTq3lr9al+Oy0SkUTEjKhCA//TGbYcqkEIkpz/KnCUWbxOO1FhXYsopeJrtahI7AYUsRpET0d5klu06QUw9PTJe28iONAsLZ1TdXlbDr5aJoaX9j854SCUS4ef3ZL2yIKA4JdJB2PdoRQojyiuvadvPLKy2Rak8lvzFP9/uFXaY5OyxGO2OgjJC84oCxp3GqBRZw3ntzvc379CBX89agB3gH91LvUajF2k6nG0jMhbEHqD37wA7ZM3nffR/7gD95rL1pbtBbjDLOkFFMgCJFinF55bYS/zGJ3/cMPP+xjxB4iW7cwNxdmMbEVkeNoQEdOL+T06UM1ttQVDTEUoXX9KTvMcrZIm12qssmvKoqY5Tt1KdWlrFNpJnaXU8UjLceS1pedCS9tewDq+Xta2TJLySlVS1TYKr+IiKq5E21lYpAMuTDkFF0Ckz87pYkczFEpPEXLL2kpWDm9HJl1OhOV4nXEVjSipKWUeiun2HrvvjLPkTgOBB9VNzZdHLlu5v+v2htuboHjfmqzpFTMARp6wzVj8fgm5MVj0jEcfqdAnJ/4lrdMe411KyAGN8ZEA5dosSiiy/C34eJ/E3VxFacHpvDRUIZT6qWSIHWYS42MM5lNgcNp37pwAkEyXQKyFLAYeObG3+T//uAHfwmLhV9cuvXWN+FsT95ImIYgOgKrolbF9BWoO+98hw06H/7wfxX89bblO97xn/i/GZ+t0kmTVu+hByFH8VzNEYPbDv6vh+CU8QjuySf/Z3sRbnr1ubHjV+4wKSgdnp8FNbWFMjv8FVsRKbU4bYofydlB5qLeZdmSvErMJS+LxIauJi0E7ll1lY3LFmm9qGKYMlsfHSG2VFd6LhSc/juUf/TqYf6SearFn5kbovGXhBDhSYmyxqJgJ3/B1obYa4+x2TjcdDrLX6q9+H/71RlzTs2atfnnlXnjEEzzyfTgZtkZ02+a/vzn069I2ecHWz1u8pg1ADdxN6RxTGo5Dvosdy6Tp1OXQCe/NRKI5dLCU8Aa05PUOOFjjRKETKC3kINTEUAsNupBHyDmmHtwTLLOyHpQ1UU9p4jQy+M0K/BbYNzme2PH5wg4nh4Z22/QloRJARbwd8sttzbhSkwDsaTllGJvf/sdgr8+auH944ODgygz1ddSlSqtmvxJDgUKzWVaD0Cw/VLe6Ie/nHGtU3sbZNhrKVqKPrf/0zvjeNNb4NxG2OWt+EQgeGp+4UuQQqhUHNY+v0QkeLVQSWwBWyFLb7Ul6C2ApngQHqPZ95eHe5xNCfpIiF4CuuBppg9O4As9ARbYcupIsUhQKgUbci0Qk/yc8g7gmrLQ9rnnnou/6XN8NhtmA1PYUiM5Gpg2OkY9TUiOU5GQu+8++MM//ODVq1eh8JUrVzSNZaYyy5smROQoGAmO0TA8E+v169piu6VlwE4464H4Az0b4E/VVcFBDAsMC1xkC5wYBAcvHANJIAPAvfzy9F7Qz38+/Va80KfQMAapLAIslqftwlR8eiLnhJzlpQkWATFvMd40cAfxMLTV5eIiHjRRy3BhqpATfRDxGcGWPWR2L0BVC4O4hKQU2hFbCqJzqhYNyJM3yCv46/sP/E0I2NzeI37uarsIlNJMhO9p+OW3P/3Tj3n4ZssHf1xjS9VwOp3KLKNpocMTORoCbfn13rn82te+BoItDzKb2zvgtzrhkhJj+bykHXdMtU/yPQWY1QMAUPAlMxAGLt2t3377WwGHLbq2iPExAz3wpSl+CMpgME0hikA0QuIF+3KCMG4AmkP97LPPCoOKO0cInkLbpYQpnArQEuKwDIAtRURvvTcpOkExOGgfGOEECj3HT48c+lMe3PN2AfczzzzD0xQFJkRdxDb1Jm2DkkrJX7ZocVvQOCcfVhU2/HpV5EMfmn75WIzboqItKVJNiLToX8cIwUOOWmxZtyveC1e+omLrNMVavqqn0pGQIuQzdckZxIW3QPB3oPCF76iTU/DEINicz7RvwDQBUGAF+L744k//6q/+O68TkF279pDHUMHfLa1QvOcpXAOXPp4gOswdBsf2hP3kJy9CJQxSFIjYJQ22JlSCzxhyCSoBYm8u8IXhIDl05mJz0h25wwQCaM4vtIV3sBhYJ5Th2CRH5qIF+BdUWzBIS+1RCS35mJFfAfjIRz5sF7A9HuqNPqUVHkJySmDMWFdLPn1s8OD/ikeLQuRNEODfGGg1EURFh4G/ZbfLQwz8vTx9dRKanhgEA4sCkX7m83wlXifskA89oRsYymuFAZq+IYGzys9pkIh8Xiq/FX6JHsBK+W9+820gnkynie3K7DERrOX9vb4W/BxJSWZcRfoEhVWhOMy18wEKv/LK9BGTal2jE6+QNzW5rys5MiWcWqHJJP/e791l5bD5zCd4LB6Uz1VHKcyhcySHWMc6RdDZ1gvLmA9HCT7YDMedbwwTm6dwrdrFBI4mKT6OwwLDAhfWAicZCw5kBFDQcSdzdOqmHoJ4Y110gjPra0kywV9KlYGcJoccMBQGdPJzCbSJovowBwfWYzNipYJCV6NDcLzRfOFb2qaxw7vyiFIvAg+stFRwcnm+kq0XQhD831Y1gRPjctcH0JxwMymaRz05JVbtUend7/4vn/zkJ//szz7uLYy8I7+91RFVAglJQ3juYg5ew+P/2pVheaAwrZoCUxMkNOGOqbpMESXHcVhgWOCiWeDEIHi1YUGB4EJooOaNXg+T+MKcTbFX/mDwKAyEFIQhgiAkBINSBaxU1tYCxR1BvJ2wwIgL3CBpAseULRhyKlPBVSXllIaKe8gm8TctGPC3tErBcPZCSslUUZfiSnN43/Oe6eW3Bx/8b56/WTNEhAsWFQl/CMJVFwAtOZFPJW9pC0N7Eij46+M7Hg8W/raFYeH8Ktgr2dMlcxDDAsMCF8cCpwjB1ciCGPgCFNzj//3fTx/f+Z3f+Q/ZkhWgcZQwOAIjCVq1vAmqnKIRBcfgG6LxK+0aJvmnP33RZmQMKVLFEUGiVhxULYCv1NtKhHlNkbSFzLUwZ2Hgp7///e/7zGc+8/GPX/NjME4pXMqnLdVYhEu5aqmI8tEcJ1t5+djDN99IRYBjPJz6VrXr63XY2q5xcVhgWOBCWOAsILgaGrDgvv3DP0xvSQjjiujCMk5xwqMYME+gsiRSNghVcoJNYE5B78797u9On7bhKvplA8I5sA2bFrGClCIwgNVO1bLjH/Y1+Cs3VQDNEJQJIU4tibTwf335zP4zuyB464W/YUsDS8hUTWuyHASbND2n+K8wuuCv+AP/165kH59s7vzUnBZ4mAouqJQ5PKaNh+eDGhY4fQvsOLOK7fQ1utg1nCkEBynAFtRwm//iiz/xxIt7yI11585Q5Vqie2RBy1E8REwaGvZJ3GHbGTiGdgiI5KZ42BwLKBsxXdznr8RsI6wKuXzbbX6X5W0+/vDpT3/6Yx/76JUrV6wTNFc1BoRE8ygvJw6v06wrMU7VxOEVfLAZGf76EhB32IspIg/0D/6W2CqyJCaLjXQJLXCpOy7K7z6/LmH/nLTKpw7BQVVqF+igwRAItt/WO3TA95Zb/h02zmOjJwew8CjtrbIhHENgU1DiZnI8b711+hCEWLOP5PKFw5PqSo6qQ+98XB1PU9GG5kdEyXnb2/69DWfwl//7wAMP+EkVAWtq9MxNKyg8CXEMhqIpFhqhXZx6jy59+df7IP2X2JohjzxvxDzJOpIyE45kjZPLYIF03OqQuyw5bDzG3n4D7dQhGKCsw6CFlny6n/3s//7jP/4/UGVPGBRGVAsUlKZebU5ij1bJzyW023zwzaFuW25vs1k4G2bDEIGKr0OrXNxynI3+NZwUsAyISvuu2x//8R994hOf8PFJmmhLmh9tHZeJkMD3JJxWyY9oNFXhr+CvN4/tX7YRTdzG80aXppLXJ4MkpUXoTq3Qk+Quc5CXxQLpuMt73NfOr/dReuoQrEMABEwBRukctBTs4LSCYG9t4BFPgKSwzBFdsILArEj17QyzXMIjgWDP9+C4J37ZIMEXdnV1GShROxCZDNsYKWzzwz333HPvvffa/OvXQ/IiX7RyjALrREzCq3WxCbR99tlnxR++853veAUDFrNPbXmOzIjqTbqka0AXsa7akTcscCEskFE6zYKd/y6E3ieoxKlDcBAwGAReEUlpQwMUYYfrArhehZApqit4CkzRnjsVijkNQskJ5spB50imTPJh92/91m97FY1ParMwfFeqvZqBJTfs6XXljpeykEzHVvtE+NTv7//+uwUfvP/mFQyhbaCsViq5qhUh0JRoBaeDP6fVQPxh8AkLn/0V/7X5ly/viVzw19UWBZ684EqxRsq2zBtsXQkexLDA2Vhgmgg7/1HpZhvhpw7BAZ10Zk/LAUzJsYvBfjJYYzsWUHX/HkdYbCEg20NVw2XwtxgfGCIkWAaFecE+CQTJfSTIpWyTcBUQgzA5eZFs6sxlWsha/5+PF/uspT3FCeBO+JeXnpVWl9eaffDXr4X68u8HPvABvwIXtQt2Q/RKWnKsI6k/SB0MtQj5DEVePvYlNsvSL37xcrNJ7gCmNvf4G30jeb3uI3dY4KayQKa9483zd+oQ/JoDAJBxXaGS9yF8UdKHdDh9XnvjxvKIFQ9OyoQ14EyCvzDRaQFZ2KouPMrmEzxejOYOKy7o0dBqAdmYsQW/VFFljxLw2kvG01cxlzwTBKeUY75ZcfXq1fvvv9/vbwpnWzyOSlicpRU5QZcEOsikmxXInt+vfvWrfvntqaeeEnxY7q5LGAfXJiUXVYz/hgVeBxa4ecC3zeg3nicEL0FtgWjc25deml4Lhkdo/ix3kpsZUGvIO2FQlWoAenhal+THF/ZVNgENWy8kMiXAx4sE3BESHKyCG4bv4rafTL6qgm3B+A3J3rH2ySG/PORnNznCqutD2BukTeEUQippqeUh/q9fvsjLx8LB0bY1Ny7wJnkjf1hgWOASW+CcIRgSxXiIBqleI/4NFLYBlvcK0bzUa8OZS9gCWyAMdLacwwdZudT3Q3IguM9CihV4QMcXttOruZaT/5t7/4jtC67QU7gW/sLKMAe4bXjwzR3OrxDwu971Lj67BcMlzCsSpoxcStnwJAf+aqlvnj3yyCNCwN48pmTY2iK5VtjIHBYYFrhJLHCeEMyEoA0eFTBxUUESCBYDldBQWGhYCifmxj95shAq0Ly2Kxrb9GU1+JuABmYCp33Dr/5rcFxBmUu8WytmyiQqeI1wCtbvvvtuYQc7f33/Af7WqyVgepNKAdxIyJEy0NYDNy+/2fzL//UJ4GzhUN3SVT8E9JTaqOW4MCwwLHAJLXBuEBxACTCxm9MlFCIA8a/BE1/YHbpLYqxgrjAoRMOpQ4Qq4y/lLLxm+WBRcVisCAB2m88pbo/XFBdniOu6CDiUnBClGMIyQLgQs599g79+eeiuu+4Sts7+B5cwzIrXaSmPLTRNtM62h6985Sv2n7WfoZtCJQ3u065F6/BLLpW0QQwLDAvcHBY4Nwgu97MgKUCTfDDEH/R0TvRAVJQzyxHmfvY3+3jWupzkpG+KUBaI84XlKEJy+5LE9DOgDYLf0PY8rL5jNomJkGgFbQ8ODvzmhedvNp95EaM+/ostnFuGRVrqCHw9fBNzgL/ev3j88cdtRLPkKNtw9gj+RoeWv0X2uDQsMCxwKS1wbhAMU9YCaFkxYOQHQP/pn17y9V4BUzDqzQtI51JDvEPUC0IVCOaqO/3UEn6+KkeYEFCOgS+cV0LU2BzPqnkNgZ8Q8Qdf/n3ooYe8ggF/rQe920tIKbBGRIPXKCbGwue1+czmB4/g0FaFZZH42gvoX2Yu/t8uf8Y8TocFhgUuvgXODYKZJrg5s1GhDIKXKnQLnnxZjZMY6GxfR3sLeO3hL6UcIzOnID4on1MQ7Acs+MKSSl2SQwhCqTxtmynjFM568uaZ3j333CPy6/mb/Q/2HfOIewVwppZeAZlwWU4uOQqAwF8vHHvt+Pvf/74fv/DxnR5/FRnxBkYYaVjgdWKB84Tg7SYOMuIBYvDxn//5F34zwtsKorp2g0HPwGswDlvBXIhNwj3fs58MqnJjyYGkAh1g0VHBWSIE+L7vfe8T+b127Zr4gy/v2KQBfGf4W9WR0NMRKCdAzO/WCsGHxx57jBfcPmD/6pJ/Hn9Y5o//hwWGBW5aC5zYb8eduIWCWY7w1w+48R/91BuHMb94xCcVVYCDsLiqxozuQbAuFcGVBuJiuOTkGR05fpTekzEVca5hOnCH1BICUvvgupff/OyQImpMLSVwlaBAlCfK1egD5TUB/vJ/v/e974kC++W3JuoQsvGuSutycnU8lOtMMshhgUtuAbP6Eu38vw4u77zzHQDxU5/6lICA3bggOKCpIxDxOoOAm7rGVQmaiy9zSz3xExd29IgMSnpWBnyFOyR4rQrhC54vwmO9yNyO8qVPVIq37sucXn7z2V/BX5vPuPPqcomP/1rIu6hz2ZwBwUtLjP+HBS6/BS6iFxwvsmwbvAOa3nrjqwIv6OmpGqSrH4QXscUfsENg3oKSLklCEBJHGD/YBYjCzT0ECxkTW7BbMhGl2yrR9Dxc1agkxOGBm4+f5cu/P/zhD8UfUlAT9sTf1QpHzrDAsMAltsAFjQUHJWd2LewTMPBzPrZJcFRhKJRMOKJQUvFZ2f602ELAQfEHcMznJVCk2Pt48Ddi49LiDHPJ2VRF8pUKv2M2P8BfD9+efvrpvHwMmiVXGwRv03aJ0Xi2s5VqgxgWGBa4NBa4oBDMfjOMq1PRWN6qX3QXNwCaUAz+xld1CRv4K+Yt/RAeR0nkwVFxbi+ZjsmJGo1lOpS0nq7MEFU7hOVWC/h6+Vjw1/d/bf71Q0ScYpzUllqR7dhalRYxq3CcDgsMC1xiC1w4CF6LbjIBVh6Ftc/+TngkeuABHacS/grUtrjCW+THb93SJ6RJYQiRIpVZlya+VjUGmei6FGL1GJ4cvXxh8wPnFwR7ECfunK1vrkrNC17IW5WzzBnIu7TE+H9Y4Ga0wBlAMBDZ629jpLVzG3XFG73j5ivDv/zly7xg2CiG4Nc2AHRcYzn4c+R0LsFzKlj9CAdDF1GXeiJwWTxFlMMrjgFPFWkI6/obfePi7/7u+SeffDL4i247LhL5XVS6DCkf6tNXOuhhgWGB14MFzgaCT9ySYCt/bxCUsNnAMzp1cIfz8kVQso4hMDRQPhnIi6hIDv7KQQgCy3zmmWft/P3zP//WE0/8Dy9icNjB9FLnUn7RhBO3zhA4LDAscFkscAYQfLqmAG2ey/3yl7+CgJIwroiEKv0QXTm8DSgnvAtinohC6irPtwh+MWWefvpv/eaxL+/Y/Gvzg61vDX9PpNohZFhgWOCmssAFhOCNgYi1hgd/0BDGcYTd7APBhIa5wxPitqTgBM9bd6qtFb4lk+BcDf6i5QhEPPfc//7yl7/sy5N+gsheCP6verfIGZeGBYYFXs8WuGj7goNWe2BWe7XhDfbzSjYbeGQHhUEh2stsnOKgcI4ni8IqIjA1qs6Dweeee+4v/uIHvnz2ox/9SE45v2Aa8+t5nI22DwsMC6y1AC9437Tw/nYutgeeNpn78rf4QvNJ4ayX3OxXA8dE5ZW2uMkQEIFhZ7VfmzGwjg/UelvE5rMvfvGLjz76dUBsO5oHg+1XPjVnig4PX/i1DTo4hgVufgsEgg5Rjhd8eLJD85XHvzuQRfheVeygRcfSo5uoqwT+XOcI2xoBef2kW/ZIdIVOgAS79g4DVt6u54H2nOXlC/GHYH3bHVEVscApGqGqGcSwwLDABbZA8DMKLgDheF7w7hCssrOAHkAM+BYtu37dN3E8FnP0+gZf2O8c19WT6h4C4Xs+K/HEE088/PDD4g/2KQv+yu99Xkh9FI5PSoUhZ1hgWODSWSDgeYiKFy0WfEyDgrxCPTEBiZcKHwGit41d8s1JBCgEiAlKpCZ0xROSEzkyneKPSztjlp/k5TfvvPn4jpfffHwnuBzmOlZEuHIGMSwwLPB6tcAh+MYCx/OCL4H1PCUTlPBCmneCPSjziTW/uBE8DbymDTP8ldnn4E9OMQNoDPKFO/zyJv/361//+ne/+10vwo3ND7HSOA4LDAvsboFjQPDuws+TEyCK0gJKm9XyNQmgLNUeCcoVFnNpoWrv/5bqwdwck0my3xV9/vnn4a/4r/TUU0/J7AVW8UEMCwwLDAtsscBNC8HaDFXFGeyOAMRekYDFgsJCw15ozld4Cljj+fb+r+K5WjCd8IVTmy48fPOzQ9/4xjf88oXNv7C+2LbYelwaFhgWGBaYWeAMIFhQ9VT/Zi06PIWhEuj0XE44QlDCJyg5vNnMAKClwG4BKH60IynJTLBYKfFl4Cv4a88v/9f7bz6+4+Vj+FvMBKbsoRKDGhYYFhgW2GyByw7BWpYnjPMmBkBFHhBgFDIKR9ixIHGKvUHnsz4QuUAz/I44JfmRmBw4C8E9eRP2/fa3v+35m+AD/xc0h01FCAXneozzYYFhgWGBzRa47Dsi4C/UW4PCfmIDPv7613knDbC+wQ+A/vVf/8hLzEITntR5gHbXXXeJS8Bin5UQI5YgKbyeiv3mN8K7EvBVxOsejiDYL78BXw/iSGDVADfkDcpvtvO4MiwwLDAssMYCa8BrDdeuWWulrc2cSeydx134Z8XXn8JTYOoalxZENqbrt932Zlsj8rsY3tq4++67/RKo3+j06xuc4rzNAXa5zEDWVgphXz/u6WijMUcYFssX2SAwDnJfd1dRnz3oYYFhgWGB9RaAd7tA3o4QGVG9wL7geg2W726Ec1XCplLHyxfqXYQLwKXfUb5y5YofoLNr2M/ac4c5wlAbBIv8wl9oa+eDXxtavnM8ebsqXgXf42kzSg0LDAu8zi0A8hZBz82GAI49kirSg+ysXF0KMSs7Y87pjGe7/FUJvW6rV1dzFvxgFODyfHnEAhFcZqd5cSNRhUQhuMOcX+FjmUmrEkfOsMCwwLDA8SwA704WgqkR8D0bCA6e7ovC621Vgd2pDcsP+uQJ2+zSeOy23oIjd1hgWGBPC7zm47hjoJsi8HfHgjuybWnWfhLEHwBoMLRwlnR0Zbbrk1iZUurO1Z4z+eM4LDAsMCxwbAvYSrWAmHUigm4zjMO/pUiJ2YXnRuRXRfsRPZKmZHIqX2bBbkPgQ2juL+1X6+AeFhgWGBZYZ4EtELwWH8nosbWnV8Vvv7qL/FWZp5VTsDu1sEviv6ky7nPonvm0FBpyhwWGBV4HFtgEwZvwsTdJEHY7zvb8Pb2L/J7/tGhgClt7eO1r4hoHbXuG4HPvNfdFBj0sMCwwLLC7BdZC8O74eDwU3l3+7g3ZlbN3YEMD0+BpsJUgBMztJcrpeco17nkGPSwwLDAssK8FYOgRrFk+RgtK7iJtXxQ+T/zdpT2DZ1hgWGBY4MwsMMPf1Ls7/uLfi/kY8s/MFKOiYYFhgWGBs7bAvwE71XcMz4qwNgAAAABJRU5ErkJggg==;" vertex="1" parent="1">
          <mxGeometry x="680" y="-481.01" width="142.32" height="56.33" as="geometry" />
        </mxCell>
      </root>
    </mxGraphModel>
  </diagram>
</mxfile>
